<svg width="800" height="800" viewBox="0 0 800 800" fill="none" xmlns="http://www.w3.org/2000/svg">
<g clip-path="url(#clip0_320_74)">
<path d="M427.586 634.483C427.586 543.077 501.697 468.966 593.103 468.966C629.186 468.966 662.454 480.634 689.654 500.234V44.8969C689.654 35.3375 681.903 27.5859 672.344 27.5859H482.759H427.587V68.9656H303.45V27.5859H248.278H58.6889C49.1295 27.5859 41.3779 35.3375 41.3779 44.8969V782.691C41.3779 792.25 49.1295 800.002 58.6889 800.002H593.103C501.697 800 427.586 725.889 427.586 634.483Z" fill="#0071CE"/>
<path d="M427.586 634.483C427.586 543.077 501.697 468.966 593.103 468.966C602.523 468.966 611.697 469.931 620.689 471.449V96.5518H524.137V110.346H206.897V96.5518H110.345V731.035H458.856C439.255 703.835 427.586 670.552 427.586 634.483Z" fill="#F0F7FA"/>
<path d="M303.448 68.9656H427.586V0H303.448V68.9656Z" fill="#95A5A5"/>
<path d="M427.586 27.5859V68.9656H303.448V27.5859H206.896V110.345H524.137V27.5859H427.586Z" fill="#BDC3C7"/>
<path d="M275.862 524.137H206.897C199.283 524.137 193.103 517.972 193.103 510.344C193.103 502.715 199.283 496.55 206.897 496.55H275.862C283.476 496.55 289.656 502.715 289.656 510.344C289.655 517.972 283.476 524.137 275.862 524.137Z" fill="#B5AA8D"/>
<path d="M413.794 524.137H386.208C378.594 524.137 372.414 517.972 372.414 510.344C372.414 502.715 378.594 496.55 386.208 496.55H413.794C421.408 496.55 427.588 502.715 427.588 510.344C427.586 517.972 421.406 524.137 413.794 524.137Z" fill="#B5AA8D"/>
<path d="M331.034 524.137C327.311 524.137 323.863 522.743 321.241 520.137C318.62 517.517 317.241 514.068 317.241 510.343C317.241 506.757 318.758 503.157 321.241 500.55C322.62 499.309 324.138 498.343 325.792 497.653C330.895 495.447 336.964 496.687 340.827 500.55C343.309 503.156 344.827 506.756 344.827 510.343C344.827 514.067 343.447 517.515 340.827 520.137C338.206 522.745 334.759 524.137 331.034 524.137Z" fill="#B5AA8D"/>
<path d="M358.62 593.103H262.069C254.455 593.103 248.275 586.938 248.275 579.309C248.275 571.681 254.455 565.516 262.069 565.516H358.62C366.234 565.516 372.414 571.681 372.414 579.309C372.414 586.938 366.234 593.103 358.62 593.103Z" fill="#B5AA8D"/>
<path d="M206.897 593.103C203.173 593.103 199.725 591.709 197.103 589.103C194.483 586.483 193.103 583.034 193.103 579.309C193.103 575.723 194.62 572.123 197.103 569.515C198.483 568.275 200 567.309 201.655 566.619C206.758 564.412 212.826 565.653 216.689 569.515C219.172 572.122 220.689 575.722 220.689 579.309C220.689 583.033 219.309 586.481 216.689 589.103C214.069 591.711 210.62 593.103 206.897 593.103Z" fill="#B5AA8D"/>
<path d="M206.883 413.794C204.111 413.794 201.311 412.953 198.883 411.214C192.676 406.8 191.242 398.18 195.669 391.986L264.634 295.434C266.8 292.4 270.083 290.386 273.751 289.82C277.42 289.241 281.158 290.18 284.137 292.414L327.64 325.034L374.729 254.414C378.358 248.994 385.267 246.883 391.336 249.255L451.847 273.461L514.386 210.937C519.779 205.544 528.497 205.544 533.889 210.937C539.281 216.331 539.283 225.048 533.889 230.441L464.923 299.406C461.034 303.309 455.172 304.495 450.04 302.469L391.475 279.02L342.509 352.483C340.412 355.628 337.103 357.78 333.364 358.414C329.612 359.062 325.792 358.137 322.758 355.862L278.881 322.951L218.122 408.014C215.434 411.78 211.186 413.794 206.883 413.794Z" fill="#F57C00"/>
<path d="M758.62 634.483C758.62 725.889 684.509 800 593.103 800C501.697 800 427.586 725.889 427.586 634.483C427.586 543.077 501.697 468.966 593.103 468.966C684.509 468.966 758.62 543.077 758.62 634.483Z" fill="#F57C00"/>
<path d="M575.924 702.464C572.752 702.464 569.648 701.375 567.179 699.319L501.165 645.139C495.276 640.311 494.419 631.608 499.248 625.733C504.088 619.871 512.779 618.974 518.668 623.83L573.137 668.533L650.323 557.636C654.654 551.374 663.26 549.816 669.523 554.202C675.771 558.547 677.316 567.139 672.957 573.402L587.246 696.547C585.052 699.707 581.632 701.802 577.812 702.327C577.179 702.424 576.544 702.464 575.924 702.464Z" fill="white"/>
</g>
<defs>
<clipPath id="clip0_320_74">
<rect width="800" height="800" fill="white"/>
</clipPath>
</defs>
</svg>
