<svg width="800" height="800" viewBox="0 0 800 800" fill="none" xmlns="http://www.w3.org/2000/svg">
<path d="M775 635C775 622.5 765 611.25 751.25 611.25H48.75C36.25 611.25 25 621.25 25 635V658.75C25 671.25 35 682.5 48.75 682.5H751.25C763.75 682.5 775 672.5 775 658.75V635Z" fill="#B2C1C0"/>
<path d="M153.75 775C199.313 775 236.25 738.623 236.25 693.75C236.25 648.877 199.313 612.5 153.75 612.5C108.187 612.5 71.25 648.877 71.25 693.75C71.25 738.623 108.187 775 153.75 775Z" fill="#3E4347"/>
<path d="M153.75 740C179.984 740 201.25 719.293 201.25 693.75C201.25 668.207 179.984 647.5 153.75 647.5C127.516 647.5 106.25 668.207 106.25 693.75C106.25 719.293 127.516 740 153.75 740Z" fill="#B2C1C0"/>
<path d="M635 775C680.563 775 717.5 738.623 717.5 693.75C717.5 648.877 680.563 612.5 635 612.5C589.436 612.5 552.5 648.877 552.5 693.75C552.5 738.623 589.436 775 635 775Z" fill="#3E4347"/>
<path d="M635 740C661.234 740 682.5 719.293 682.5 693.75C682.5 668.207 661.234 647.5 635 647.5C608.766 647.5 587.5 668.207 587.5 693.75C587.5 719.293 608.766 740 635 740Z" fill="#B2C1C0"/>
<path d="M681.25 237.5H352.5C313.75 237.5 282.5 268.75 282.5 307.5V611.25H751.25V307.5C751.25 268.75 720 237.5 681.25 237.5Z" fill="#0071CE"/>
<path d="M188.75 331.25C132.5 331.25 118.75 331.25 118.75 425C118.75 495 48.75 495 48.75 565V611.25H283.75V331.25H188.75Z" fill="#F15744"/>
<path d="M72.5 541.25H96.25V587.5H72.5V541.25Z" fill="#F57C00"/>
<path d="M160 495C146.25 495 138.75 505 143.75 517.5L163.75 567.5C168.75 580 183.75 588.75 197.5 588.75H235C248.75 588.75 260 578.75 260 565V518.75C260 506.25 248.75 495 235 495H160Z" fill="#D33B23"/>
<path d="M260 353.75H166.25C166.25 353.75 142.5 356.25 142.5 388.75V445C142.5 445 142.5 471.25 166.25 471.25H260V353.75Z" fill="#3E4347"/>
<path d="M153.75 657.5C159.963 657.5 165 652.463 165 646.25C165 640.037 159.963 635 153.75 635C147.537 635 142.5 640.037 142.5 646.25C142.5 652.463 147.537 657.5 153.75 657.5Z" fill="#3E4347"/>
<path d="M113.75 681.25C119.963 681.25 125 676.213 125 670C125 663.787 119.963 658.75 113.75 658.75C107.537 658.75 102.5 663.787 102.5 670C102.5 676.213 107.537 681.25 113.75 681.25Z" fill="#3E4347"/>
<path d="M107.5 706.25C112.5 702.5 120 705 123.75 710C127.5 715 125 722.5 120 726.25C115 730 107.5 727.5 103.75 722.5C100 716.25 101.25 710 107.5 706.25Z" fill="#3E4347"/>
<path d="M153.75 751.25C159.963 751.25 165 746.213 165 740C165 733.787 159.963 728.75 153.75 728.75C147.537 728.75 142.5 733.787 142.5 740C142.5 746.213 147.537 751.25 153.75 751.25Z" fill="#3E4347"/>
<path d="M195 727.5C201.213 727.5 206.25 722.463 206.25 716.25C206.25 710.037 201.213 705 195 705C188.787 705 183.75 710.037 183.75 716.25C183.75 722.463 188.787 727.5 195 727.5Z" fill="#3E4347"/>
<path d="M195 681.25C201.213 681.25 206.25 676.213 206.25 670C206.25 663.787 201.213 658.75 195 658.75C188.787 658.75 183.75 663.787 183.75 670C183.75 676.213 188.787 681.25 195 681.25Z" fill="#3E4347"/>
<path d="M153.75 717.5C166.867 717.5 177.5 706.867 177.5 693.75C177.5 680.633 166.867 670 153.75 670C140.633 670 130 680.633 130 693.75C130 706.867 140.633 717.5 153.75 717.5Z" fill="#0071CE"/>
<path d="M635 657.5C641.213 657.5 646.25 652.463 646.25 646.25C646.25 640.037 641.213 635 635 635C628.787 635 623.75 640.037 623.75 646.25C623.75 652.463 628.787 657.5 635 657.5Z" fill="#3E4347"/>
<path d="M593.75 681.25C599.963 681.25 605 676.213 605 670C605 663.787 599.963 658.75 593.75 658.75C587.537 658.75 582.5 663.787 582.5 670C582.5 676.213 587.537 681.25 593.75 681.25Z" fill="#3E4347"/>
<path d="M587.5 706.25C592.5 702.5 600 705 603.75 710C607.5 715 605 722.5 600 726.25C595 730 587.5 727.5 583.75 722.5C580 716.25 582.5 710 587.5 706.25Z" fill="#3E4347"/>
<path d="M635 751.25C641.213 751.25 646.25 746.213 646.25 740C646.25 733.787 641.213 728.75 635 728.75C628.787 728.75 623.75 733.787 623.75 740C623.75 746.213 628.787 751.25 635 751.25Z" fill="#3E4347"/>
<path d="M675 727.5C681.213 727.5 686.25 722.463 686.25 716.25C686.25 710.037 681.213 705 675 705C668.787 705 663.75 710.037 663.75 716.25C663.75 722.463 668.787 727.5 675 727.5Z" fill="#3E4347"/>
<path d="M675 681.25C681.213 681.25 686.25 676.213 686.25 670C686.25 663.787 681.213 658.75 675 658.75C668.787 658.75 663.75 663.787 663.75 670C663.75 676.213 668.787 681.25 675 681.25Z" fill="#3E4347"/>
<path d="M635 717.5C648.117 717.5 658.75 706.867 658.75 693.75C658.75 680.633 648.117 670 635 670C621.883 670 611.25 680.633 611.25 693.75C611.25 706.867 621.883 717.5 635 717.5Z" fill="#0071CE"/>
<path d="M355 408.75C348.75 403.75 340 401.25 327.5 401.25C320 401.25 312.5 401.25 307.5 402.5V470C311.25 470 317.5 471.25 325 471.25C338.75 471.25 348.75 467.5 356.25 461.25C362.5 455 367.5 446.25 367.5 433.75C365 422.5 361.25 415 355 408.75ZM326.25 461.25H318.75V412.5C320 412.5 323.75 411.25 327.5 411.25C343.75 411.25 352.5 420 352.5 435C352.5 452.5 342.5 461.25 326.25 461.25Z" fill="white"/>
<path d="M415 440H388.75V460H417.5V470H376.25V401.25H416.25V412.5H388.75V430H415V440Z" fill="white"/>
<path d="M441.25 460V401.25H428.75V470H470V460H441.25Z" fill="white"/>
<path d="M478.75 401.25H491.25V470H478.75V401.25Z" fill="white"/>
<path d="M546.25 401.25L536.25 432.5C533.75 441.25 531.25 448.75 528.75 457.5C527.5 448.75 525 441.25 522.5 432.5L512.5 401.25H500L522.5 470H537.5L561.25 401.25H546.25Z" fill="white"/>
<path d="M580 460V440H606.25V430H580V412.5H607.5V401.25H567.5V470H608.75V460H580Z" fill="white"/>
<path d="M663.75 451.25C662.5 445 658.75 440 653.75 437.5C660 435 666.25 428.75 666.25 420C666.25 413.75 663.75 410 660 406.25C655 402.5 648.75 401.25 638.75 401.25C631.25 401.25 625 401.25 620 402.5V470H632.5V441.25H638.75C646.25 441.25 648.75 443.75 651.25 453.75C653.75 462.5 655 467.5 656.25 470H668.75C667.5 467.5 666.25 460 663.75 451.25ZM640 432.5H632.5V411.25H640C648.75 411.25 653.75 415 653.75 422.5C653.75 428.75 648.75 432.5 640 432.5Z" fill="white"/>
<path d="M713.75 401.25L705 418.75C702.5 423.75 701.25 427.5 698.75 432.5C697.5 427.5 695 423.75 692.5 418.75L683.75 401.25H670L691.25 441.25V470H703.75V441.25L726.25 401.25H713.75Z" fill="white"/>
<path d="M341.25 377.5V307.5C341.25 301.25 346.25 296.25 352.5 296.25H680C686.25 296.25 691.25 301.25 691.25 307.5V377.5H715V307.5C715 288.75 698.75 272.5 680 272.5H352.5C332.5 272.5 317.5 288.75 317.5 307.5V377.5H341.25Z" fill="#3E4347"/>
<path d="M692.5 495V541.25C692.5 547.5 687.5 552.5 681.25 552.5H352.5C346.25 552.5 341.25 547.5 341.25 541.25V495H317.5V541.25C317.5 560 333.75 576.25 352.5 576.25H680C700 576.25 715 560 715 541.25V495H692.5Z" fill="#3E4347"/>
<path d="M365 330C371.213 330 376.25 324.963 376.25 318.75C376.25 312.537 371.213 307.5 365 307.5C358.787 307.5 353.75 312.537 353.75 318.75C353.75 324.963 358.787 330 365 330Z" fill="#B2C1C0"/>
<path d="M670 330C676.213 330 681.25 324.963 681.25 318.75C681.25 312.537 676.213 307.5 670 307.5C663.787 307.5 658.75 312.537 658.75 318.75C658.75 324.963 663.787 330 670 330Z" fill="#B2C1C0"/>
<path d="M365 541.25C371.213 541.25 376.25 536.213 376.25 530C376.25 523.787 371.213 518.75 365 518.75C358.787 518.75 353.75 523.787 353.75 530C353.75 536.213 358.787 541.25 365 541.25Z" fill="#B2C1C0"/>
<path d="M670 541.25C676.213 541.25 681.25 536.213 681.25 530C681.25 523.787 676.213 518.75 670 518.75C663.787 518.75 658.75 523.787 658.75 530C658.75 536.213 663.787 541.25 670 541.25Z" fill="#B2C1C0"/>
<path d="M470 693.75C470 706.25 460 717.5 446.25 717.5H352.5C340 717.5 328.75 707.5 328.75 693.75V670C328.75 657.5 338.75 646.25 352.5 646.25H446.25C458.75 646.25 470 656.25 470 670V693.75Z" fill="#0071CE"/>
<path d="M356.25 658.75C348.75 658.75 341.25 663.75 341.25 670C341.25 676.25 347.5 681.25 356.25 681.25H443.75C451.25 681.25 458.75 676.25 458.75 670C458.75 663.75 452.5 658.75 443.75 658.75H356.25Z" fill="#B2C1C0"/>
</svg>
