<svg width="800" height="800" viewBox="0 0 800 800" fill="none" xmlns="http://www.w3.org/2000/svg">
<g clip-path="url(#clip0_280_56)">
<path d="M596.294 194.553C598.211 192.89 600.465 191.66 602.901 190.947C605.337 190.234 607.898 190.055 610.41 190.423C612.876 190.77 615.232 191.666 617.307 193.044C619.381 194.422 621.119 196.247 622.395 198.386C623.872 201.337 624.712 204.565 624.861 207.861C625.935 220.757 623.444 233.7 617.659 245.275C614.932 251.125 610.976 256.318 606.06 260.5C601.319 264.274 596.554 266.087 588.692 262.112C587.612 267.755 586.075 273.301 584.096 278.696C580.374 288.643 560.884 321.199 535.554 336.713C535.582 344.703 536.013 353.033 538.679 359.633C544.405 373.816 575.344 391.66 577.475 392.593C577.475 392.593 559.941 458.991 477.079 458.991C394.217 458.991 383.315 392.593 383.315 392.593C385.446 391.66 411.525 376.302 417.273 362.119C419.97 355.461 420.38 347.096 420.403 339.09C408.14 332.804 397.319 324.036 388.626 313.344C376.978 299.209 368.734 282.586 364.529 264.76C357.236 267.672 351.792 263.907 347.528 260.507C342.612 256.325 338.656 251.132 335.929 245.281C330.146 233.706 327.656 220.763 328.731 207.868C328.88 204.571 329.721 201.343 331.197 198.393C332.473 196.254 334.212 194.429 336.286 193.05C338.36 191.672 340.717 190.777 343.182 190.429C345.694 190.062 348.255 190.241 350.691 190.953C353.127 191.666 355.381 192.896 357.298 194.56C357.298 194.56 349.335 79.2134 468.199 79.2134C604.821 79.2134 596.294 194.553 596.294 194.553Z" fill="white"/>
<path d="M383.999 38.1352C393.818 25.7727 410.246 16.0802 426.77 11.8876C445.512 6.57585 465.015 4.46287 484.459 5.63757C524.583 9.10661 563.841 27.8945 589.054 59.2957C617.601 94.8495 622.311 150.851 608.166 190.258C603.851 190.159 599.652 191.661 596.378 194.475C593.975 179.986 586.939 158.924 581.792 144.888C581.126 142.455 579.761 140.272 577.866 138.609C575.391 137.043 572.584 136.079 569.669 135.792C551.261 132.685 540.747 130.441 521.95 129.518C501.722 128.523 487.118 138.054 467.695 133.464C456.285 130.767 430.774 117.828 422.074 111.378C419.73 109.667 417.635 108.009 415.679 106.717C413.349 105.163 410.277 103.667 407.811 104.981C407.324 105.259 406.864 105.584 406.44 105.951C405.13 107.017 403.204 108.548 401.983 109.645C374.79 132.727 359.427 165.043 360.381 197.25V197.354L357.274 194.551C355.357 192.887 353.103 191.657 350.667 190.944C348.231 190.232 345.67 190.053 343.158 190.42C341.327 190.695 339.554 191.266 337.907 192.111C328.538 163.232 329.979 121.386 336.495 99.4327L338.249 93.5267C345.02 73.3761 356.146 58.5366 369.05 51.2279L383.999 38.1352Z" fill="#908B8A"/>
<path d="M752.519 794.196C741.668 644.259 725.081 513.601 711.356 467.866C708.399 457.286 702.257 447.873 693.765 440.904C686.154 435.244 677.997 430.36 669.415 426.324C644.71 414.39 605.152 398.528 579.832 387.965L555.622 379.016C552.146 398.548 546.211 424.029 539.717 441.725C534.415 456.165 517.027 505.351 505.191 533.463C496.29 554.584 486.243 575.203 475.095 595.229C446.326 529.725 411.445 461.605 402.365 379.495L375.968 388.944L372.943 390.202C347.468 400.785 308.485 416.374 284.748 427.845C277.096 431.313 270.084 436.048 264.007 441.85C257.295 448.209 251.977 455.893 248.388 464.415C230.655 510.722 228.81 533.179 209.896 581.257C201.728 561.852 194.2 543.189 185.817 522.625C160.928 535.738 121.272 553.9 96.3896 559.293C108.792 599.009 121.248 641.731 138.72 681.504C150.865 709.137 167.493 734.892 196.683 742.573C207.618 745.64 219.108 746.167 230.277 744.116C241.446 742.065 251.999 737.488 261.13 730.737C276.9 719.213 294.267 695.871 305.192 682.073L306.193 680.863C307.524 697.576 307.194 713.711 307.194 731.4C307.194 753.484 305.884 769.798 305.862 794.855L752.519 794.196Z" fill="white"/>
<path d="M97.5572 534.32C106.619 530.99 150.303 514.884 168.392 505.595C170.345 509.524 174.34 518.801 177.048 524.483L178.189 526.565C156.367 537.625 127.023 550.784 104.99 557.1L104.182 555.245C101.43 548.409 97.3685 536.668 96.4807 534.715L97.5572 534.32Z" fill="white"/>
<path d="M386.001 397.193C389.069 395.642 392.007 393.845 394.785 391.82C400.07 388.316 405.092 384.43 409.811 380.194C414.569 376.188 418.513 371.305 421.43 365.812C425.352 357.534 425.683 347.992 425.727 338.992C425.758 332.136 415.105 332.127 415.074 338.992C415.137 343.258 414.922 347.524 414.43 351.763C414.016 355.105 413.106 358.367 411.729 361.44C408.996 366.086 405.447 370.199 401.251 373.583C397.225 377.094 392.959 380.321 388.484 383.24C385.99 385.024 383.362 386.613 380.623 387.994C379.411 388.714 378.532 389.883 378.174 391.246C377.817 392.61 378.01 394.06 378.712 395.282C379.448 396.477 380.616 397.343 381.973 397.698C383.331 398.054 384.773 397.873 386.001 397.193Z" fill="#211715"/>
<path d="M530.242 338.925C530.406 347.914 530.908 357.986 535.906 365.781C539.631 371.203 544.182 376.008 549.394 380.021C554.584 384.249 560.014 388.172 565.658 391.771C568.568 393.79 571.617 395.6 574.783 397.189C576.012 397.861 577.452 398.038 578.807 397.683C580.162 397.327 581.33 396.467 582.071 395.278C582.773 394.055 582.966 392.606 582.609 391.242C582.251 389.879 581.372 388.71 580.16 387.989C577.308 386.561 574.556 384.941 571.924 383.14C567.094 380.123 562.433 376.846 557.959 373.323C555.404 371.297 552.954 369.141 550.619 366.864C548.831 365.14 547.184 363.274 545.696 361.284C544.919 360.179 544.234 359.012 543.648 357.795C544.229 359.016 543.231 356.644 543.204 356.546C542.817 355.389 542.49 354.214 542.223 353.024C541.297 348.381 540.855 343.655 540.902 338.921C540.778 332.074 530.122 332.052 530.249 338.921L530.242 338.925Z" fill="#211715"/>
<path d="M550.777 365.295C547.84 359.972 544.032 355.178 539.511 351.113C530.942 362.632 511.377 377.016 487.93 386.449C486.255 386.998 484.705 387.875 483.371 389.028C482.81 390.074 483.902 390.992 484.415 391.814C485.547 393.188 486.777 394.48 488.095 395.678C480.726 395.678 475.248 395.707 468.317 395.711C469.65 394.505 470.892 393.202 472.034 391.814C472.549 390.992 473.641 390.074 473.08 389.028C471.746 387.875 470.196 386.999 468.521 386.449C445.072 377.016 425.507 362.632 416.94 351.113C409.212 358.215 406.305 363.853 401.661 372.81C409.552 457.919 445.547 527.952 475.095 595.231C486.243 575.205 496.29 554.586 505.191 533.465C517.028 505.353 534.415 456.167 539.717 441.727C546.598 422.971 552.857 395.458 556.221 375.567C554.157 371.619 552.493 368.303 550.777 365.295Z" fill="white"/>
<path d="M381.886 623.478L378.716 617.337C369.617 602.182 364.458 575.941 362.552 562.318C360.23 545.734 366.325 509.983 369.625 496.526C372.655 501.915 385.992 532.773 389.703 541.482C396.754 558.033 408.848 580.545 403.721 598.815C399.848 612.616 393.585 614.396 385.788 618.516C377.467 622.91 369.79 620.424 361.975 624.268C356.191 627.116 355.077 632.578 355.825 637.952C356.799 644.958 362.787 652.582 370.642 650.793C374.224 649.977 377.101 647.409 380.294 645.6C384.536 643.198 389.792 641.116 394.208 639.057C404.309 634.343 413.797 629.222 419.97 619.694C426.628 609.425 430.563 597.843 429.229 585.681C424.684 544.261 396.423 509.215 383.768 472.028C382.658 453.022 389.732 408.773 400.383 385.994C400.383 385.994 401.353 384.884 402.776 383.217C402.012 376.888 401.409 370.473 400.967 363.975C387.53 370.012 370.935 390.36 365.921 418.989C363.151 434.794 359.46 451.109 356.155 469.839C343.76 500.69 339.243 542.714 340.619 563.211C341.951 583.137 347.466 608.488 357.931 624.819L360.921 631.615L381.886 623.478Z" fill="white"/>
<path d="M602.309 549.802C603.616 538.368 600.007 525.763 589.711 520.37C599.286 468.283 595.997 442.706 589.531 413.367C585.727 396.101 573.449 372.972 557.957 364.074C557.291 369.239 556.279 375.576 555.005 382.54C558.583 386.116 564.007 398.569 565.61 404.489C576.86 446.193 578.003 472.809 571.101 517.904C558.732 520.63 553.567 532.453 552.473 537.032C549.552 549.336 550.537 565.31 561.641 573.247C564.175 575.044 567.071 576.267 570.127 576.829C587.66 580.158 599.073 567.336 601.865 552.694C602.049 551.744 602.198 550.777 602.309 549.802Z" fill="white"/>
<path d="M412.83 646.721C412.709 644.875 412.119 643.09 411.115 641.536C410.111 639.982 408.726 638.711 407.092 637.843L401.741 635.312C399.3 636.629 396.774 637.852 394.208 639.05C390.955 640.568 387.248 642.097 383.826 643.755C385.118 646.945 386.796 649.964 388.824 652.744C390.73 655.289 393.513 657.035 396.634 657.643C398.612 657.857 400.612 657.67 402.516 657.095C406.511 656.042 410.617 653.947 412.337 650.183C412.792 649.089 412.961 647.898 412.83 646.721Z" fill="#0071CE"/>
<path d="M355.638 635.958C355.34 633.592 355.792 631.192 356.928 629.095C358.065 626.998 359.829 625.31 361.975 624.268C366.238 622.52 370.781 621.554 375.387 621.414C378.904 628.878 380.795 637.004 380.936 645.253C380.714 645.36 380.492 645.475 380.285 645.6C377.092 647.409 374.215 649.977 370.633 650.793C362.778 652.582 356.79 644.958 355.816 637.951C355.731 637.286 355.667 636.62 355.638 635.958Z" fill="#0071CE"/>
<path d="M449.542 523.704L449.562 523.42C454.234 485.125 460.66 438.163 460.66 436.822C460.564 434.436 460.178 432.069 459.512 429.776C459.244 428.704 458.975 427.669 458.746 426.597C457.321 420.503 456.414 416.268 455.122 409.567C456.96 407.654 458.775 405.732 460.522 403.814C463.785 400.234 466.397 397.6 468.315 395.718C475.242 395.718 480.717 395.689 488.081 395.678C490.003 397.569 492.631 400.205 495.918 403.814C498.18 406.296 500.555 408.784 502.943 411.252C502.206 414.206 501.789 415.875 501.789 415.875C501.061 418.785 500.257 421.81 499.185 425.104C497.649 429.104 496.719 433.312 496.426 437.588C496.389 439.772 502.641 480.977 508.529 520.419L509.04 524.072C507.708 527.402 506.419 530.542 505.187 533.465C496.285 554.586 486.238 575.205 475.091 595.231C466.568 575.826 457.51 556.193 448.743 536.035C449.127 530.167 449.462 524.951 449.542 523.704Z" fill="#0071CE"/>
<path d="M518.859 428.229C533.361 411.309 545.324 392.368 554.37 372.003C549.965 363.509 547.004 358.002 539.511 351.113C530.941 362.632 511.377 377.016 487.93 386.449C486.254 386.998 484.705 387.875 483.371 389.028C482.81 390.074 483.902 390.992 484.414 391.814C485.222 393.105 489.182 396.417 495.922 403.814C503.577 412.208 512.529 420.667 518.859 428.229Z" fill="white"/>
<path d="M437.592 428.229C423.089 411.309 411.127 392.369 402.081 372.003C406.484 363.509 409.447 358.002 416.951 351.113C425.518 362.632 445.083 377.016 468.532 386.449C470.207 386.999 471.757 387.875 473.091 389.028C473.652 390.074 472.56 390.992 472.045 391.814C471.24 393.105 467.278 396.417 460.537 403.814C452.88 412.208 443.922 420.667 437.592 428.229Z" fill="white"/>
<path d="M374.553 383.817C343.651 396.69 312.185 408.611 282.06 423.244C264.304 431.864 249.749 445.882 242.667 464.526C236.181 481.616 230.744 499.014 225.661 516.555C219.977 536.182 214.02 555.669 206.727 574.77C206.363 576.131 206.548 577.582 207.244 578.808C207.94 580.033 209.091 580.936 210.447 581.321C211.808 581.666 213.249 581.472 214.47 580.779C215.691 580.085 216.597 578.947 216.999 577.602C229.51 544.842 237.358 510.647 249.145 477.656C252.308 468.801 255.36 460.198 261.315 452.765C266.989 445.6 274.032 439.636 282.034 435.22C296.105 427.452 311.375 421.486 326.172 415.262C343.202 408.102 360.332 401.189 377.385 394.08C378.722 393.666 379.851 392.757 380.542 391.54C381.233 390.323 381.434 388.888 381.105 387.528C380.721 386.17 379.819 385.019 378.592 384.322C377.366 383.626 375.914 383.441 374.553 383.808V383.817Z" fill="#211715"/>
<path d="M578.416 393.103C608.068 405.468 638.18 417.038 667.086 431.1C681 437.87 694.932 445.64 702.376 459.774C706.899 468.361 708.857 478.477 710.954 487.897C716.212 511.517 719.91 535.494 723.326 559.44C728.04 592.49 731.891 625.664 735.346 658.872C739.489 698.62 743.041 738.423 746 778.28C746.402 783.583 746.795 788.886 747.178 794.189C747.212 795.592 747.784 796.927 748.775 797.919C749.767 798.911 751.103 799.483 752.505 799.516C753.914 799.504 755.263 798.94 756.259 797.943C757.255 796.947 757.82 795.598 757.832 794.189C754.852 753.086 751.319 712.026 747.234 671.008C743.707 636.009 739.723 601.048 734.931 566.198C731.434 540.754 727.627 515.29 722.32 490.152C720.663 481.502 718.514 472.953 715.884 464.548C713.217 456.337 708.86 448.777 703.093 442.353C697.448 436.59 690.954 431.725 683.837 427.926C669.743 419.781 654.513 413.5 639.569 407.112C623.556 400.263 607.442 393.653 591.344 387.004C587.972 385.611 584.604 384.214 581.239 382.811C579.877 382.444 578.424 382.629 577.197 383.326C575.97 384.022 575.068 385.175 574.685 386.533C574.346 387.894 574.543 389.334 575.236 390.553C575.929 391.773 577.064 392.679 578.407 393.085L578.416 393.103Z" fill="#211715"/>
<path d="M652.678 794.855C652.644 774.498 651.439 754.168 651.346 733.82C651.251 711.456 650.651 688.851 653.878 666.658C655.432 655.9 657.601 645.22 659.427 634.502C661.252 623.745 663.008 612.976 664.696 602.193C668.138 580.262 671.333 558.294 674.282 536.29C677.389 513.144 680.222 489.961 682.781 466.741C682.772 465.331 682.208 463.981 681.211 462.984C680.214 461.987 678.864 461.423 677.454 461.414C676.051 461.446 674.714 462.017 673.722 463.009C672.73 464.001 672.159 465.338 672.127 466.741C667.54 509.059 661.952 551.256 655.363 593.333C652.052 614.74 648.376 636.074 644.643 657.41C640.699 679.951 640.622 702.687 640.686 725.501C640.75 748.632 641.989 771.733 642.018 794.862C642.018 801.716 652.682 801.729 652.671 794.862L652.678 794.855Z" fill="#211715"/>
<path d="M271.045 472.796C275.667 514.886 281.294 556.853 287.926 598.696C291.289 620.149 295.264 641.494 298.753 662.923C302.266 684.49 301.909 706.387 301.871 728.165C301.829 750.406 300.573 772.616 300.54 794.855C300.528 801.711 311.182 801.72 311.193 794.855C311.226 775.289 312.341 755.748 312.505 736.183C312.687 714.486 313.14 692.6 310.561 671.015C309.249 660.024 307.076 649.16 305.187 638.258C303.336 627.561 301.552 616.854 299.834 606.135C296.363 584.513 293.141 562.854 290.168 541.158C287.044 518.411 284.223 495.625 281.703 472.798C281.663 471.398 281.089 470.066 280.099 469.075C279.108 468.085 277.776 467.511 276.376 467.471C274.966 467.48 273.616 468.044 272.619 469.041C271.622 470.038 271.058 471.388 271.049 472.798L271.045 472.796Z" fill="#211715"/>
<path d="M341.951 187.047C336.375 167.116 335.567 145.764 337.356 125.225C338.806 108.579 342.858 91.82 351.355 77.2847C356.175 68.4791 363.207 61.0813 371.756 55.8201C377.693 52.3977 372.333 43.1868 366.378 46.6226C348.538 56.9076 337.787 76.4102 332.092 95.5909C326.999 114.014 324.983 133.15 326.124 152.23C326.528 164.947 328.39 177.577 331.672 189.87C333.517 196.462 343.797 193.661 341.944 187.038L341.951 187.047Z" fill="#211715"/>
<path d="M387.765 41.9014C403.184 22.7917 427.563 15.5362 450.976 12.207C474.704 8.78406 498.907 11.1001 521.555 18.9609C543.554 26.426 563.379 39.1852 579.286 56.115C593.992 72.4805 603.856 92.6146 607.773 114.265C612.603 138.007 611.338 162.586 604.096 185.706C601.98 192.244 612.265 195.045 614.37 188.538C621.253 166.259 622.989 142.708 619.448 119.661C616.118 96.3319 607.423 73.6022 592.539 55.1828C560.865 15.9801 507.661 -4.18605 457.938 0.727871C429.751 3.51332 398.832 11.317 380.232 34.3685C379.271 35.3872 378.736 36.7346 378.736 38.135C378.736 39.5353 379.271 40.8828 380.232 41.9014C381.236 42.8912 382.589 43.446 383.999 43.446C385.408 43.446 386.761 42.8912 387.765 41.9014Z" fill="#211715"/>
<path d="M365.719 197.252C365.438 174.877 372.45 153.02 385.694 134.984C392.376 125.565 400.444 117.21 409.625 110.204C410.637 109.445 409.625 109.811 410.568 109.966C411.736 110.373 412.815 111.003 413.744 111.819C416.103 113.435 418.316 115.26 420.669 116.887C423.88 119.106 427.276 121.059 430.688 122.948C439.225 127.715 448.063 131.926 457.144 135.552C466.425 139.361 476.528 140.727 486.488 139.519C498.213 138.067 509.548 134.367 521.475 134.827C533.254 135.419 544.982 136.787 556.581 138.922L567.208 140.753C569.722 141.183 573.66 141.336 575.373 143.569C576.666 145.773 577.63 148.155 578.232 150.638C579.268 153.544 580.28 156.459 581.268 159.383C585.541 171.277 588.88 183.485 591.256 195.898C591.641 197.254 592.544 198.404 593.77 199.101C594.995 199.797 596.446 199.983 597.808 199.62C599.152 199.217 600.29 198.31 600.983 197.089C601.676 195.868 601.871 194.427 601.528 193.066C599.276 181.228 596.124 169.578 592.099 158.22C590.372 153.026 588.632 147.813 586.655 142.71C585.687 139.7 583.961 136.989 581.641 134.84C578.824 132.684 575.496 131.295 571.982 130.809C559.673 128.497 547.228 126.357 534.761 125.121C527.966 124.267 521.111 123.99 514.269 124.291C507.867 124.882 501.509 125.882 495.235 127.285C484.654 129.407 474.485 130.428 464.104 126.823C455.07 123.517 446.318 119.487 437.932 114.774C434.092 112.694 430.27 110.539 426.646 108.097C421.776 104.819 417.129 99.8299 410.985 99.255C404.789 98.6757 399.693 104.491 395.433 108.322C390.683 112.587 386.265 117.208 382.216 122.145C364.916 143.274 354.371 169.732 355.066 197.252C355.236 204.097 365.892 204.121 365.719 197.252Z" fill="#211715"/>
<path d="M462.295 441.825C473.326 441.825 484.355 441.581 495.383 441.576C496.796 441.576 498.151 441.015 499.15 440.016C500.149 439.017 500.71 437.662 500.71 436.25C500.71 434.837 500.149 433.482 499.15 432.483C498.151 431.484 496.796 430.923 495.383 430.923C484.355 430.923 473.326 431.167 462.295 431.171C460.883 431.171 459.528 431.733 458.529 432.732C457.53 433.731 456.969 435.085 456.969 436.498C456.969 437.911 457.53 439.266 458.529 440.265C459.528 441.264 460.883 441.825 462.295 441.825Z" fill="#211715"/>
<path d="M450.512 413.653C451.463 418.458 452.499 423.244 453.619 428.013C454.632 431.01 455.199 434.138 455.304 437.3C455.082 440.591 454.48 443.896 454.054 447.165C452.085 462.219 450.118 477.274 448.153 492.329C446.821 502.687 445.517 513.05 444.242 523.42C444.249 524.83 444.812 526.181 445.81 527.179C446.807 528.176 448.158 528.74 449.569 528.747C450.971 528.713 452.307 528.141 453.298 527.15C454.29 526.158 454.862 524.822 454.895 523.42C457.095 505.409 459.425 487.413 461.776 469.422C463.161 458.849 465.041 448.217 465.917 437.586C465.977 434.277 465.505 430.979 464.517 427.82C463.121 422.187 461.909 416.501 460.781 410.812C460.596 410.138 460.279 409.507 459.849 408.955C459.419 408.403 458.884 407.941 458.276 407.595C457.668 407.25 456.997 407.028 456.303 406.942C455.609 406.855 454.904 406.907 454.23 407.093C453.555 407.278 452.924 407.595 452.372 408.025C451.82 408.455 451.358 408.99 451.013 409.598C450.667 410.206 450.445 410.877 450.359 411.571C450.273 412.266 450.324 412.97 450.51 413.644L450.512 413.653Z" fill="#211715"/>
<path d="M487.455 390.351L467.833 390.393C466.42 390.393 465.065 390.954 464.066 391.953C463.067 392.952 462.506 394.307 462.506 395.72C462.506 397.132 463.067 398.487 464.066 399.486C465.065 400.485 466.42 401.046 467.833 401.046L487.455 401.004C488.868 401.004 490.223 400.443 491.222 399.444C492.221 398.445 492.782 397.09 492.782 395.677C492.782 394.265 492.221 392.91 491.222 391.911C490.223 390.912 488.868 390.351 487.455 390.351Z" fill="#211715"/>
<path d="M513.669 519.003C511.098 501.804 508.526 484.604 505.954 467.405C505.005 461.012 504.067 454.617 503.142 448.219C502.815 445.939 502.496 443.658 502.184 441.377C502.126 440.966 502.308 442.356 502.168 441.261C502.126 440.931 502.082 440.596 502.039 440.271C501.966 439.692 501.88 439.111 501.833 438.529C501.738 436.063 502.083 433.599 502.852 431.254C504.146 426.575 505.737 422.005 506.929 417.291C508.605 410.633 498.333 407.805 496.657 414.459C494.764 421.972 490.809 429.975 491.108 437.843C491.237 441.13 491.93 444.455 492.387 447.707C494.384 461.922 496.544 476.116 498.67 490.321C500.242 500.826 501.814 511.332 503.389 521.837C503.773 523.194 504.676 524.346 505.903 525.042C507.129 525.738 508.581 525.923 509.943 525.557C511.286 525.152 512.421 524.245 513.113 523.025C513.806 521.805 514.003 520.366 513.663 519.005L513.669 519.003Z" fill="#211715"/>
<path d="M532.504 585.702C520.741 597.022 508.809 608.159 496.548 618.917C495.549 619.916 494.988 621.271 494.988 622.684C494.987 624.097 495.548 625.452 496.547 626.451C497.546 627.45 498.901 628.012 500.314 628.012C501.727 628.012 503.082 627.451 504.081 626.452C516.353 615.692 528.289 604.55 540.037 593.235C541.022 592.234 541.572 590.883 541.566 589.478C541.561 588.073 541 586.727 540.006 585.733C539.013 584.739 537.667 584.179 536.261 584.173C534.856 584.167 533.506 584.717 532.504 585.702Z" fill="#211715"/>
<path d="M482.117 670.591C482.71 671.124 483.187 671.77 483.762 672.307C483.223 671.595 483.112 671.458 483.429 671.896C483.533 672.043 483.633 672.194 483.729 672.34C483.893 672.597 484.046 672.864 484.19 673.135C484.412 673.561 484.652 674.486 484.137 672.897C484.237 673.21 484.37 673.51 484.468 673.825C484.651 674.431 484.786 675.049 484.874 675.676L484.683 674.26C484.825 675.375 484.825 676.503 484.683 677.618L484.874 676.202C484.786 676.83 484.658 677.451 484.49 678.062C484.419 678.321 484.339 678.578 484.25 678.834C484.166 679.085 483.738 680.137 484.173 679.107C484.608 678.077 484.173 679.067 484.055 679.309C483.937 679.551 483.811 679.771 483.68 679.995C483.549 680.219 483.42 680.406 483.289 680.61C482.737 681.46 484.219 679.54 483.602 680.215C483.38 680.452 482.492 681.655 482.173 681.602C482.208 681.602 483.405 680.739 482.59 681.258C482.457 681.34 482.328 681.431 482.195 681.513C481.895 681.7 481.587 681.875 481.272 682.035C481.132 682.106 480.988 682.17 480.846 682.239C480.095 682.61 481.955 681.83 481.354 682.017C481.052 682.115 480.757 682.239 480.453 682.325C479.726 682.541 478.984 682.704 478.233 682.812L479.649 682.621C478.312 682.797 476.957 682.802 475.619 682.634L477.035 682.825C475.978 682.65 474.938 682.384 473.928 682.03C475.532 682.543 474.802 682.41 474.389 682.208C474.129 682.079 473.874 681.942 473.623 681.793C473.439 681.682 473.264 681.56 473.084 681.442C472.352 680.972 474.22 682.421 473.37 681.664C472.886 681.228 472.424 680.767 471.985 680.284C471.36 679.593 472.747 681.411 471.972 680.252C471.826 680.031 471.684 679.809 471.553 679.571C471.422 679.334 471.315 679.109 471.195 678.881C470.78 678.075 471.684 680.261 471.273 678.981C471.101 678.437 470.974 677.88 470.893 677.316L471.084 678.732C470.964 677.774 470.964 676.805 471.084 675.847L470.893 677.263C470.99 676.587 471.139 675.919 471.337 675.265C471.431 674.952 471.544 674.646 471.653 674.34C472.012 673.325 471.113 675.45 471.599 674.48C471.908 673.849 472.249 673.235 472.62 672.64C472.798 672.36 472.983 672.086 473.177 671.818C473.262 671.675 473.361 671.542 473.473 671.419C473.31 671.559 472.598 672.478 473.18 671.821C473.379 671.599 473.572 671.377 473.79 671.155C474.007 670.933 474.82 670.287 474.012 670.904C473.204 671.521 474.103 670.862 474.323 670.724C474.618 670.536 474.926 670.362 475.246 670.203C475.299 670.176 475.63 669.981 475.676 669.996C475.676 669.996 474.363 670.5 475.071 670.256C475.379 670.149 475.683 670.034 475.996 669.941C476.71 669.729 477.439 669.575 478.178 669.479L476.762 669.668C477.924 669.525 479.1 669.525 480.262 669.668L478.846 669.477C479.34 669.548 479.83 669.645 480.313 669.77C480.515 669.825 480.712 669.883 480.91 669.947C481.108 670.012 482.02 670.38 481.09 669.981C480.202 669.601 480.928 669.919 481.13 670.021C481.332 670.123 481.574 670.243 481.782 670.378C481.991 670.513 482.2 670.649 482.408 670.784C483.156 671.275 481.387 669.947 482.115 670.573C483.137 671.541 484.482 672.094 485.888 672.127C486.944 672.13 487.976 671.819 488.855 671.233C489.733 670.648 490.418 669.815 490.822 668.84C491.226 667.866 491.332 666.792 491.125 665.757C490.918 664.722 490.409 663.772 489.661 663.027C486.636 660.403 482.779 658.936 478.775 658.886C475.241 658.797 471.758 659.751 468.763 661.629C465.714 663.714 463.335 666.639 461.914 670.049C460.493 673.459 460.091 677.207 460.757 680.841C461.753 684.786 464.17 688.226 467.544 690.5C469.613 691.814 471.921 692.706 474.336 693.123C476.751 693.541 479.225 693.477 481.615 692.934C484.005 692.392 486.264 691.382 488.262 689.962C490.259 688.542 491.956 686.741 493.255 684.663C494.884 681.605 495.628 678.153 495.401 674.695C495.043 670.217 492.99 666.044 489.661 663.027C488.66 662.042 487.309 661.492 485.904 661.498C484.499 661.503 483.153 662.064 482.159 663.058C481.165 664.051 480.605 665.397 480.599 666.803C480.593 668.208 481.143 669.558 482.128 670.56L482.117 670.591Z" fill="#211715"/>
<path d="M571.542 571.696C558.993 569.059 555.669 556.355 556.541 545.062C556.716 542.666 557.114 540.292 557.731 537.971C557.855 537.509 557.999 537.052 558.154 536.599C558.261 536.284 558.376 535.978 558.494 535.667C558.778 534.866 558.006 536.617 558.674 535.243C559.929 532.234 561.822 529.534 564.223 527.328C565.457 526.153 566.869 525.179 568.406 524.443C570.337 523.54 572.405 522.966 574.525 522.743C579.859 522.164 585.223 523.529 589.631 526.587C597.379 532.633 598.487 544.538 596.261 553.398C593.364 564.924 584.018 573.893 571.538 571.7C570.177 571.365 568.739 571.563 567.52 572.256C566.301 572.948 565.394 574.081 564.986 575.422C564.623 576.784 564.809 578.234 565.505 579.459C566.201 580.685 567.351 581.588 568.706 581.974C576.266 583.575 584.152 582.347 590.867 578.523C596.982 574.672 601.731 568.995 604.442 562.296C609.915 549.403 609.216 532.977 600.018 521.926C591.16 511.286 573.256 508.905 561.572 516.062C557.53 518.673 554.097 522.122 551.506 526.177C548.915 530.232 547.228 534.797 546.558 539.562C544.957 547.816 545.609 556.348 548.444 564.263C550.075 568.671 552.784 572.601 556.323 575.695C559.862 578.789 564.119 580.947 568.706 581.974C575.4 583.375 578.259 573.107 571.542 571.696Z" fill="#211715"/>
<path d="M574.645 556.454C573.71 556.281 572.824 555.907 572.048 555.358C568.648 552.928 568.346 548.034 569.241 544.261C569.478 543.203 569.934 542.206 570.581 541.337C571.228 540.467 572.051 539.743 572.996 539.211C573.941 538.68 574.987 538.354 576.067 538.253C577.146 538.152 578.235 538.28 579.262 538.627C583.783 539.866 585.154 544.895 584.366 549.059C583.505 553.538 580.01 557.471 574.645 556.454Z" fill="#211715"/>
<path d="M401.186 358.168C386.52 363.741 375.855 377.78 369.248 391.478C364.916 400.787 361.876 410.644 360.213 420.775C358.237 431.651 355.958 442.444 353.845 453.28C352.753 458.879 352.291 465.072 350.247 470.385C348.534 474.824 347.024 479.356 345.675 483.924C342.847 493.607 340.608 503.452 338.97 513.405C336.187 529.971 334.138 547.195 335.35 564.009C336.904 585.627 341.613 608.949 353.328 627.506C356.979 633.288 366.201 627.95 362.525 622.129C352.795 606.725 348.425 587.685 346.51 569.749C345.126 554.189 345.681 538.518 348.163 523.095C349.511 513.601 351.363 504.185 353.712 494.888C354.875 490.32 356.173 485.788 357.642 481.305C359.441 476.633 360.916 471.843 362.057 466.969C364.026 456.194 366.254 445.467 368.367 434.72C370.318 424.801 371.672 414.729 375.025 405.152C378.012 396.373 382.546 388.199 388.413 381.018C390.9 378.011 393.676 375.255 396.701 372.79C397.942 371.846 399.236 370.973 400.576 370.176C401.242 369.781 401.93 369.405 402.627 369.066C402.924 368.917 403.224 368.775 403.526 368.637C404.573 368.158 402.88 368.877 404.023 368.444C405.363 368.035 406.496 367.128 407.188 365.91C407.88 364.691 408.079 363.253 407.743 361.892C407.359 360.536 406.456 359.385 405.23 358.688C404.004 357.992 402.553 357.806 401.191 358.17L401.186 358.168Z" fill="#211715"/>
<path d="M383.315 614.647C374.686 600.043 371.088 582.16 368.4 565.596C368.269 564.784 368.141 563.97 368.016 563.155C367.992 562.984 367.686 560.813 367.812 561.81C367.59 560.132 367.484 558.441 367.421 556.75C367.286 553.059 367.397 549.361 367.61 545.677C368.087 537.393 369.088 529.141 370.36 520.947C371.556 513.239 372.917 505.526 374.761 497.942L365.024 499.214C370.775 509.579 375.065 520.954 379.78 531.811C385.732 545.521 392.677 559.151 396.947 573.487C399.409 581.752 400.785 590.401 398.17 598.789C395.975 605.831 392.666 608.998 386.527 612.152C382.978 614.164 379.09 615.507 375.056 616.116C369.804 616.378 364.63 617.503 359.742 619.445C351.055 623.574 348.54 633.856 351.463 642.51C354.386 651.164 362.523 658.138 372.062 655.914C377.03 654.757 380.998 651.117 385.468 648.865C389.994 646.585 394.714 644.714 399.28 642.515C407.598 638.508 415.848 633.637 421.683 626.312C428.15 618.227 432.438 608.62 434.137 598.407C435.69 588.262 433.915 577.988 431.411 568.118C428.873 558.59 425.566 549.283 421.523 540.29C413.835 522.636 404.167 505.941 396.128 488.452C394.231 484.328 392.439 480.16 390.826 475.914C390.126 474.342 389.533 472.725 389.05 471.073C388.902 469.609 388.881 468.135 388.99 466.668C389.133 459.569 389.689 452.485 390.657 445.452C392.6 429.263 396.185 413.314 401.355 397.85C402.409 394.73 403.621 391.665 404.984 388.666C405.657 387.437 405.834 385.997 405.478 384.642C405.123 383.286 404.262 382.118 403.073 381.377C401.85 380.676 400.401 380.484 399.037 380.841C397.674 381.199 396.506 382.078 395.784 383.288C389.17 397.577 385.433 413.169 382.607 428.597C381.144 436.587 379.975 444.628 379.178 452.705C378.426 458.876 378.168 465.098 378.408 471.311C378.676 475.616 381.014 480.08 382.656 484.042C384.534 488.566 386.525 493.043 388.629 497.472C392.648 505.935 396.994 514.235 401.242 522.585C409.7 539.209 417.888 556.177 421.981 574.483C424.036 583.667 425.117 592.785 422.46 601.965C420.054 610.988 414.954 619.063 407.84 625.114C400.811 630.731 392.166 634.107 384.05 637.789C381.87 638.777 379.691 639.787 377.613 640.985C375.485 642.202 373.547 643.789 371.346 644.872C370.076 645.59 368.583 645.806 367.162 645.475C365.741 645.144 364.496 644.291 363.675 643.085C361.691 640.602 360.724 637.458 360.969 634.289C361.245 630.68 363.606 628.985 366.998 628.017C371.437 626.752 376.117 626.878 380.614 625.946C384.845 624.848 388.903 623.167 392.67 620.95C398.854 617.961 403.778 612.877 406.569 606.601C410.203 597.952 411.15 588.408 409.288 579.213C406.475 563.221 398.456 548.387 392.087 533.594C387.037 521.868 382.012 510.112 376.579 498.559C375.829 496.966 375.085 495.363 374.231 493.823C373.686 492.94 372.898 492.234 371.962 491.788C371.025 491.343 369.98 491.177 368.951 491.312C367.923 491.446 366.955 491.874 366.165 492.545C365.374 493.217 364.794 494.102 364.494 495.095C360.747 510.745 358.293 526.677 357.156 542.729C356.484 550.278 356.654 557.879 357.665 565.39C358.918 573.899 360.635 582.333 362.809 590.654C365.217 600.912 369.026 610.79 374.129 620.009C377.613 625.906 386.826 620.553 383.326 614.631L383.315 614.647Z" fill="#211715"/>
<path d="M342.057 569.518C348.652 569.123 355.231 568.55 361.795 567.8C363.2 567.758 364.541 567.205 365.568 566.247C366.559 565.24 367.116 563.886 367.122 562.474C367.004 559.859 364.76 556.809 361.795 557.147C355.233 557.895 348.654 558.468 342.057 558.865C340.644 558.865 339.29 559.426 338.291 560.425C337.292 561.424 336.73 562.779 336.73 564.191C336.73 565.604 337.292 566.959 338.291 567.958C339.29 568.957 340.644 569.518 342.057 569.518Z" fill="#211715"/>
<path d="M400.054 561.004C400.33 560.885 400.605 560.769 400.88 560.651L399.606 561.189C404.48 559.147 409.518 557.52 414.665 556.326C416.021 555.94 417.171 555.037 417.867 553.811C418.562 552.586 418.749 551.136 418.385 549.774C417.984 548.428 417.078 547.289 415.857 546.596C414.636 545.903 413.194 545.708 411.833 546.054C405.954 547.454 400.212 549.378 394.677 551.805C393.478 552.506 392.602 553.648 392.235 554.987C392.049 555.662 391.997 556.367 392.083 557.061C392.169 557.756 392.391 558.427 392.737 559.035C393.082 559.644 393.544 560.179 394.097 560.609C394.649 561.039 395.28 561.356 395.955 561.541L397.371 561.73C398.316 561.732 399.244 561.482 400.059 561.004H400.054Z" fill="#211715"/>
<path d="M595.078 520.523C599.517 495.834 602.533 470.623 600.203 445.534C598.269 424.702 594.394 403.186 583.878 384.851C577.204 373.217 568.082 362.25 555.436 357.019C554.074 356.652 552.622 356.836 551.396 357.533C550.169 358.229 549.266 359.381 548.884 360.739C548.544 362.099 548.74 363.539 549.433 364.759C550.125 365.979 551.261 366.885 552.604 367.291C561.815 371.101 568.846 380.421 573.853 388.819C579.212 397.915 583.023 407.837 585.13 418.181C589.215 436.429 590.899 455.132 590.14 473.817C589.334 488.545 587.555 503.204 584.813 517.698C584.476 519.059 584.675 520.496 585.367 521.715C586.059 522.934 587.192 523.841 588.533 524.25C589.894 524.613 591.344 524.426 592.57 523.731C593.795 523.035 594.698 521.885 595.085 520.53L595.078 520.523Z" fill="#211715"/>
<path d="M371.354 625.314C373.278 629.982 374.601 634.875 375.292 639.876L375.101 638.46C375.302 639.97 375.45 641.487 375.545 643.01C375.545 644.422 376.106 645.777 377.105 646.776C378.104 647.775 379.459 648.336 380.871 648.336C382.284 648.336 383.639 647.775 384.638 646.776C385.637 645.777 386.198 644.422 386.198 643.01C385.825 635.964 384.283 629.03 381.635 622.491C381.22 621.176 380.356 620.049 379.194 619.308C378.59 618.955 377.922 618.724 377.229 618.629C376.535 618.533 375.83 618.576 375.153 618.753C374.476 618.931 373.841 619.24 373.284 619.663C372.726 620.086 372.258 620.615 371.905 621.219C371.536 621.828 371.298 622.508 371.205 623.214C371.113 623.921 371.168 624.639 371.368 625.323L371.354 625.314Z" fill="#211715"/>
<path d="M404.851 641.682C405.246 641.849 405.596 642.06 405.974 642.262C406.773 642.685 405.53 641.742 406.107 642.368C406.415 642.699 406.74 643.007 407.035 643.351C406.369 642.566 407.021 643.373 407.155 643.584C407.408 643.986 407.614 644.406 407.838 644.825C408.304 645.713 407.685 644.197 407.931 645.074C408.058 645.517 408.213 645.961 408.318 646.419C408.437 646.949 408.415 647.322 408.378 646.578C408.4 647.009 408.397 647.442 408.415 647.875C408.455 648.824 408.67 647.093 408.415 647.91C408.027 649.177 408.881 647.38 408.32 648.318C408.111 648.671 407.92 649.026 407.692 649.368C408.171 648.656 407.215 649.868 407.07 650.005C406.926 650.143 406.118 650.818 406.717 650.36C405.877 650.977 404.975 651.504 404.025 651.934C403.74 652.063 403.771 652.054 404.118 651.907C403.859 652.012 403.595 652.112 403.33 652.205C402.869 652.371 402.403 652.518 401.932 652.649C401.415 652.797 400.893 652.933 400.379 653.05C400.054 653.124 399.728 653.188 399.402 653.243C399.682 653.219 399.664 653.221 399.351 653.243C398.777 653.292 398.2 653.308 397.624 653.292C397.043 653.246 396.958 653.241 397.402 653.292C397.194 653.252 396.985 653.206 396.781 653.148C396.577 653.09 395.307 652.606 396.046 652.944C395.594 652.733 395.157 652.492 394.737 652.223C394.555 652.109 394.375 652.001 394.199 651.867C394.519 652.136 394.479 652.105 394.075 651.77C393.671 651.435 393.325 651.104 392.965 650.735C392.345 650.127 391.804 649.443 391.354 648.7C390.092 646.654 388.979 644.519 388.025 642.313C387.427 641.3 386.454 640.564 385.316 640.266C384.179 639.968 382.97 640.132 381.952 640.721C380.96 641.337 380.242 642.31 379.945 643.44C379.649 644.57 379.797 645.77 380.359 646.794C382.005 651.112 384.6 655.005 387.952 658.186C389.772 659.764 391.9 660.945 394.202 661.655C396.839 662.315 399.596 662.336 402.243 661.715C406.601 660.987 410.63 658.936 413.784 655.842C415.262 654.304 416.323 652.414 416.867 650.352C417.411 648.289 417.419 646.122 416.891 644.055C416.466 641.923 415.567 639.913 414.261 638.175C412.955 636.436 411.275 635.014 409.345 634.012C408.321 633.451 407.122 633.303 405.992 633.599C404.863 633.895 403.89 634.612 403.273 635.603C402.691 636.623 402.531 637.83 402.829 638.965C403.126 640.101 403.857 641.075 404.864 641.678L404.851 641.682Z" fill="#211715"/>
<path d="M583.978 255.873C583.698 260.752 582.789 265.575 581.273 270.222C580.744 271.984 580.163 273.731 579.575 275.473C579.368 276.074 579.169 276.68 578.958 277.28C578.816 277.681 578.157 279.14 578.847 277.601C576.707 282.256 574.247 286.757 571.485 291.071C563.422 304.286 553.267 316.103 541.415 326.062C534.869 331.617 527.264 335.788 519.061 338.322C512.48 340.202 515.276 350.485 521.893 348.594C538.896 343.737 553.059 331.504 564.436 318.38C573.804 307.998 581.642 296.33 587.711 283.732C591.778 274.973 594.127 265.516 594.632 255.873C594.854 249.015 584.2 249.023 583.978 255.873Z" fill="#211715"/>
<path d="M357.187 256.021C363.533 290.019 381.677 322.666 412.093 340.686C420.2 345.572 429.171 348.856 438.518 350.358C439.878 350.689 441.314 350.489 442.532 349.798C443.749 349.106 444.657 347.976 445.07 346.638C445.435 345.276 445.249 343.826 444.553 342.6C443.857 341.374 442.706 340.471 441.35 340.086C408.899 335.155 384.058 305.753 373.554 276.221C370.921 268.715 368.883 261.014 367.459 253.189C367.073 251.834 366.17 250.684 364.944 249.989C363.719 249.293 362.269 249.106 360.907 249.469C359.561 249.87 358.423 250.776 357.729 251.997C357.036 253.218 356.842 254.66 357.187 256.021Z" fill="#211715"/>
<path d="M600.06 198.319C602.506 196.319 605.632 195.348 608.78 195.612C611.928 195.875 614.85 197.352 616.929 199.731C619.328 202.767 619.552 207.11 619.712 210.81C619.929 215.096 619.706 219.392 619.046 223.632C617.72 232.182 614.702 240.38 610.168 247.749C606.754 253.176 601.104 260.516 593.901 258.536C587.283 256.714 584.458 266.988 591.069 268.807C609.595 273.912 621.745 252.015 626.581 237.497C629.498 228.747 630.771 219.533 630.334 210.32C629.89 201.409 627.513 192.93 619.399 188.087C615.199 185.668 610.345 184.627 605.522 185.111C600.699 185.596 596.15 187.58 592.514 190.786C591.526 191.791 590.972 193.143 590.972 194.553C590.972 195.962 591.526 197.314 592.514 198.319C593.526 199.293 594.876 199.836 596.281 199.836C597.685 199.836 599.035 199.293 600.047 198.319H600.06Z" fill="#211715"/>
<path d="M361.056 190.786C357.74 187.868 353.66 185.958 349.296 185.28C344.931 184.602 340.464 185.185 336.42 186.96C327.904 190.733 324.328 198.583 323.451 207.419C321.676 225.397 327.069 245.496 338.817 259.393C345.105 266.832 354.176 272.807 364.234 270.468C370.908 268.914 368.083 258.64 361.402 260.194C354.404 261.823 347.595 254.057 344.155 248.901C339.372 241.537 336.155 233.267 334.704 224.607C333.98 220.377 333.688 216.085 333.834 211.796C333.938 208.072 334.027 203.584 336.207 200.392C337.185 199.09 338.417 197.999 339.829 197.185C341.241 196.372 342.802 195.852 344.42 195.659C346.038 195.465 347.678 195.601 349.241 196.058C350.805 196.515 352.26 197.284 353.519 198.319C354.534 199.286 355.883 199.825 357.285 199.825C358.687 199.825 360.036 199.286 361.051 198.319C362.039 197.314 362.592 195.962 362.592 194.553C362.592 193.144 362.039 191.791 361.051 190.786H361.056Z" fill="#211715"/>
<path d="M552.275 366.64C549.869 382.698 546.6 398.614 542.481 414.319C539.209 426.937 534.983 439.151 530.56 451.384C520.719 478.631 511.084 506.048 499.765 532.724C485.56 566.191 467.695 597.644 449.793 629.22C445.536 636.602 441.667 644.202 438.203 651.988C435.239 658.142 432.82 664.544 430.972 671.119C428.353 682.037 427.98 693.614 427.643 704.789C426.835 731.489 428.06 758.196 428.706 784.885C428.762 787.169 428.807 789.452 428.841 791.737C428.937 798.586 439.59 798.617 439.495 791.737C439.144 766.264 437.817 740.82 438.088 715.336C438.156 708.731 438.309 702.121 438.685 695.525C438.847 692.593 439.049 689.663 439.319 686.738C439.436 685.445 439.569 684.151 439.719 682.858C439.801 682.159 439.885 681.46 439.978 680.761C439.845 681.749 440.107 679.92 440.145 679.684C442.123 666.911 448.122 654.615 454.128 643.298C462.5 627.507 471.855 612.226 480.444 596.549C488.976 580.982 496.999 565.148 504.246 548.939C516.886 520.67 527.362 491.455 537.897 462.36C541.857 451.422 546.058 440.538 549.37 429.383C554.138 413.101 557.977 396.561 560.869 379.844C561.479 376.391 562.04 372.93 562.554 369.461C562.883 368.101 562.682 366.666 561.991 365.449C561.3 364.232 560.171 363.323 558.834 362.909C557.472 362.545 556.021 362.73 554.795 363.426C553.569 364.122 552.666 365.273 552.282 366.629L552.275 366.64Z" fill="#211715"/>
<path d="M395.835 366.957C398.577 399.852 405.096 432.322 415.262 463.727C425.027 493.252 436.398 522.223 449.322 550.508C456.176 565.967 463.199 581.359 470.012 596.826C470.732 598.039 471.901 598.919 473.265 599.277C474.629 599.635 476.079 599.441 477.301 598.737C478.494 598 479.358 596.832 479.714 595.475C480.07 594.118 479.89 592.677 479.212 591.449C454.78 535.962 428.228 481.123 414.825 421.636C410.741 403.635 407.955 385.364 406.489 366.964C406.455 365.562 405.883 364.227 404.891 363.235C403.899 362.243 402.564 361.671 401.162 361.637C399.753 361.648 398.404 362.213 397.408 363.21C396.411 364.206 395.846 365.555 395.835 366.964V366.957Z" fill="#211715"/>
<path d="M522.625 431.997C533.547 419.186 543.111 405.277 551.163 390.493C553.107 386.859 554.965 383.181 556.736 379.46C557.83 377.532 558.757 375.514 559.506 373.427C560.232 370.784 558.505 368.402 557.324 366.174C553.736 359.154 548.986 352.792 543.277 347.355C542.692 346.797 541.99 346.377 541.222 346.126C540.454 345.874 539.639 345.797 538.838 345.901C538.036 346.004 537.268 346.285 536.588 346.723C535.909 347.161 535.337 347.746 534.912 348.434C525.979 360.279 510.678 369.741 497.048 376.548C492.609 378.767 487.975 380.458 483.529 382.609C478.886 384.855 476.171 389.225 479.456 394.006C482.916 399.047 488.034 403.106 492.156 407.592C499.713 415.804 507.888 423.47 515.092 432.006C516.097 432.994 517.449 433.548 518.859 433.548C520.268 433.548 521.62 432.994 522.625 432.006C523.6 430.992 524.145 429.64 524.145 428.233C524.145 426.826 523.6 425.473 522.625 424.46C515.851 416.436 508.185 409.223 501.052 401.528C497.987 398.219 494.915 394.932 491.71 391.762C490.847 390.905 489.996 390.035 489.131 389.179C488.787 388.839 488.021 387.716 489.113 389.276C488.982 389.088 488.27 387.869 488.352 388.229V391.061L488.507 390.448L487.138 392.799C486.596 393.433 487.693 392.421 488.099 392.206C488.505 391.991 488.924 391.78 489.346 391.591C491.137 390.781 492.991 390.089 494.795 389.303C497.964 387.923 501.087 386.443 504.163 384.864C509.819 381.969 515.291 378.728 520.548 375.161C529.516 369.379 537.475 362.166 544.11 353.809L535.744 354.886C541.551 360.611 546.299 367.318 549.769 374.697V369.321C540.728 389.172 529.065 407.719 515.092 424.468C514.124 425.486 513.584 426.837 513.584 428.242C513.584 429.646 514.124 430.997 515.092 432.015C516.099 433 517.453 433.55 518.862 433.547C520.271 433.544 521.622 432.987 522.625 431.997Z" fill="#211715"/>
<path d="M441.359 424.462C427.386 407.715 415.722 389.17 406.68 369.321V374.697C410.151 367.318 414.9 360.611 420.707 354.886L412.339 353.809C418.974 362.166 426.933 369.379 435.901 375.161C441.159 378.727 446.631 381.968 452.285 384.864C455.214 386.369 458.184 387.783 461.197 389.106C462.999 389.898 464.832 390.617 466.637 391.403C467.222 391.658 467.786 391.907 468.352 392.209C468.714 392.399 469.955 393.554 469.313 392.801L467.944 390.451L468.099 391.063V388.231C468.181 387.872 467.469 389.09 467.338 389.279C468.448 387.725 467.664 388.835 467.318 389.181C466.455 390.038 465.604 390.908 464.739 391.765C461.536 394.941 458.464 398.228 455.397 401.53C448.266 409.225 440.6 416.439 433.826 424.462C432.857 425.479 432.317 426.83 432.317 428.235C432.317 429.64 432.857 430.991 433.826 432.008C434.831 432.996 436.183 433.549 437.592 433.549C439.001 433.549 440.354 432.996 441.359 432.008C447.696 424.5 454.82 417.706 461.545 410.557C464.666 407.241 467.711 403.863 470.927 400.64C472.48 399.087 474.165 397.593 475.588 395.9C478.631 392.253 479.991 387.399 475.519 384.136C471.857 381.473 467.049 380.181 462.954 378.261C454.491 374.321 446.402 369.622 438.786 364.223C432.325 359.797 426.521 354.481 421.546 348.432C421.121 347.744 420.548 347.159 419.869 346.721C419.19 346.283 418.422 346.002 417.62 345.899C416.818 345.795 416.004 345.872 415.236 346.124C414.468 346.375 413.765 346.795 413.18 347.353C407.471 352.79 402.722 359.152 399.133 366.172C398.055 368.207 396.532 370.322 396.856 372.717C397.431 374.941 398.328 377.07 399.52 379.034C401.36 382.894 403.284 386.713 405.29 390.491C413.343 405.275 422.906 419.184 433.828 431.995C434.833 432.983 436.186 433.537 437.595 433.537C439.004 433.537 440.356 432.983 441.361 431.995C442.332 430.981 442.873 429.632 442.873 428.228C442.873 426.824 442.33 425.475 441.359 424.462Z" fill="#211715"/>
<path d="M551.239 386.307C552.08 387.195 551.461 386.429 551.944 387.128C552.348 387.71 552.728 388.309 553.096 388.915C554.082 390.542 554.958 392.244 555.791 393.944C557.307 397.037 558.622 400.225 559.728 403.488C567.434 428.796 570.821 455.222 569.747 481.656C569.163 492.853 567.838 503.997 566.18 515.081C565.849 516.442 566.05 517.877 566.741 519.095C567.432 520.313 568.562 521.222 569.9 521.635C571.262 522 572.713 521.814 573.939 521.117C575.165 520.421 576.068 519.27 576.452 517.913C579.413 498.129 581.526 478.149 580.396 458.125C579.331 439.012 575.964 420.098 570.368 401.792C568.987 397.5 567.301 393.312 565.321 389.261C563.699 385.447 561.49 381.911 558.774 378.781C554.04 373.802 546.513 381.344 551.228 386.314L551.239 386.307Z" fill="#211715"/>
<path d="M132.199 392.819C126.721 371.8 114.316 328.753 109.56 322.71C105.965 318.122 101.679 314.573 93.7707 317.938C86.9724 320.843 88.0777 328.68 89.3695 335.157C90.6878 341.891 99.3727 377.036 104.411 395.216C102.649 392.769 100.11 390.99 97.2087 390.17C94.3069 389.35 91.2129 389.536 88.4306 390.699C83.1039 393.141 81.042 397.679 81.6413 400.962C82.1527 403.496 82.978 405.956 84.0982 408.286C80.7357 404.957 74.6566 404.977 70.3153 407.301C65.7098 409.767 61.0689 416.367 63.3394 421.13C64.3315 423.214 65.6144 425.627 67.0371 428.053L65.4324 426.732C59.5819 421.923 49.4255 424.884 47.7742 431.298C46.5069 436.221 48.6465 442.027 51.3875 446.528C51.7715 447.16 52.1866 447.844 52.6282 448.561L53.0189 449.766C56.772 461.385 64.0763 479.139 75.0205 491.792C80.1009 497.658 85.9648 503.48 90.5724 509.77C95.1801 516.06 96.3253 523.051 98.5737 530.58L99.5347 533.585C110.483 529.548 143.756 517.161 162.686 508.36L162.164 506.722C160.413 498.632 158.48 488.114 159.625 481.261C161.676 473.532 164.26 465.956 167.358 458.584C169.888 452.597 170.996 446.104 170.594 439.616C169.783 432.243 167.872 421.703 162.381 414.017C161.15 412.355 159.599 410.957 157.818 409.904C151.249 405.878 143.107 405.687 135.386 406.147L134.7 403.057C134.336 401.259 133.448 397.613 132.199 392.819Z" fill="white"/>
<path d="M109.471 393.602C105.527 379.242 101.905 364.789 98.374 350.322C97.1288 345.218 95.8593 340.113 94.7651 334.981C94.1294 332.439 93.7832 329.833 93.733 327.213C93.7774 324.328 94.5431 322.89 97.8857 322.162C101.042 321.471 102.613 322.856 104.693 325.149C104.813 325.28 105.703 326.399 105.212 325.739C104.888 325.296 105.143 325.642 105.212 325.755C105.339 325.948 105.47 326.141 105.587 326.343C105.927 326.931 106.24 327.531 106.537 328.141C106.715 328.509 106.883 328.884 107.054 329.251C107.139 329.435 107.665 330.651 107.332 329.872C106.999 329.093 107.554 330.416 107.634 330.611C107.86 331.175 108.082 331.741 108.299 332.309C109.176 334.582 109.995 336.875 110.79 339.176C114.847 350.939 118.36 362.885 121.754 374.85C124.533 384.638 127.549 394.494 129.544 404.48C129.92 405.842 130.821 407 132.05 407.698C133.279 408.395 134.735 408.576 136.097 408.201C137.46 407.825 138.617 406.924 139.315 405.695C140.013 404.466 140.194 403.01 139.818 401.648C137.941 392.255 135.122 382.982 132.523 373.771C128.916 360.974 125.183 348.178 120.811 335.618C117.344 325.662 113.042 312.052 100.34 311.315C97.8283 311.164 95.3131 311.553 92.9644 312.457C90.6158 313.361 88.4884 314.759 86.7261 316.555C84.0061 319.942 82.7068 324.252 83.1017 328.578C83.6241 334.261 84.6642 339.884 86.209 345.377C90.2595 362.467 94.5254 379.506 99.1774 396.436C100.991 403.039 111.271 400.236 109.449 393.604L109.471 393.602Z" fill="#211715"/>
<path d="M47.8851 451.184C52.1573 465.335 58.737 478.684 67.3589 490.691C72.5103 497.514 78.6982 503.435 84.0959 510.052C86.5723 512.958 88.5282 516.27 89.8777 519.842C91.3026 523.821 92.2503 527.954 93.4399 532.004C95.3665 538.57 105.647 535.778 103.712 529.172C101.375 521.213 99.6434 513.094 94.5919 506.312C89.3273 499.238 82.9196 493.172 77.3709 486.336C68.4464 475.354 62.5004 461.72 58.1569 448.355C56.0462 441.863 45.7544 444.641 47.8851 451.187V451.184Z" fill="#211715"/>
<path d="M141.121 446.115C140.406 442.068 139.453 438.066 138.267 434.13C137.36 430.439 135.035 427.254 131.797 425.265C128.482 423.634 124.876 422.681 121.188 422.462C120.129 422.311 119.108 422.036 118.063 421.847C118.682 421.958 117.743 421.346 118.125 421.938C118.445 422.48 118.308 422.268 117.717 421.304C117.461 420.904 117.246 420.479 117.075 420.036C116.627 418.848 116.647 417.533 117.133 416.359C117.421 415.618 117.776 414.904 118.194 414.228C119.525 411.969 118.638 413.72 118.445 413.824C121.252 412.687 124.249 412.09 127.278 412.064C134.38 411.425 142.073 410.444 149.096 412.104C152.266 412.662 155.194 414.165 157.496 416.416C159.644 419.101 161.249 422.177 162.222 425.474C164.206 430.918 165.272 436.653 165.375 442.446C165.249 452.352 160.581 460.571 157.465 469.837C156.662 472.227 155.872 474.627 155.166 477.048C154.955 477.774 154.722 478.506 154.578 479.248C154.453 479.838 154.398 480.424 154.318 481.023C154.489 479.745 154.174 482.004 154.096 482.719C153.288 491.153 155.257 499.933 157.019 508.13C158.462 514.83 168.734 511.994 167.293 505.298C165.715 497.973 163.964 490.205 164.754 482.659C164.798 482.215 164.869 481.633 164.945 481.194C165.02 480.755 164.454 482.526 164.821 482.166C164.934 482.051 164.947 481.589 164.994 481.432C165.26 480.544 165.486 479.667 165.753 478.79C166.496 476.349 167.306 473.907 168.128 471.484C168.98 468.98 169.854 466.486 170.791 464.015C170.991 463.492 171.195 462.972 171.399 462.462C171.603 461.951 171.879 461.401 171.464 462.282C171.996 461.154 172.542 460.04 173.017 458.886C175.447 452.767 176.434 446.17 175.902 439.608C175.295 431.926 173.42 424.398 170.354 417.329C168.744 413.455 166.227 410.024 163.015 407.326C159.803 404.628 155.99 402.741 151.897 401.823C143.844 399.921 135.397 400.674 127.247 401.404C123.021 401.572 118.844 402.375 114.856 403.785C113.003 404.625 111.354 405.856 110.022 407.393C108.69 408.93 107.705 410.737 107.136 412.69C103.923 421.079 108.468 431.18 117.603 432.625C120.389 433.069 125.815 432.758 127.469 435.511C128.18 437.217 128.674 439.007 128.938 440.837C129.732 443.497 130.359 446.203 130.818 448.941C131.201 450.298 132.104 451.45 133.33 452.146C134.557 452.842 136.008 453.027 137.37 452.66C138.717 452.261 139.858 451.358 140.557 450.139C141.256 448.92 141.458 447.479 141.121 446.115Z" fill="#211715"/>
<path d="M75.4222 450.43C75.673 451.318 75.4977 449.425 75.4733 450.679C75.4489 451.968 75.7307 450.153 75.4333 451.058C75.3423 451.34 74.7187 452.874 75.2447 451.833C74.9717 452.374 74.7031 452.911 74.3813 453.426C74.2171 453.686 74.0417 453.932 73.8708 454.185C73.913 454.123 74.3991 453.548 74.0106 454.008C73.6785 454.405 73.3266 454.786 72.9564 455.149C72.75 455.348 72.5347 455.53 72.3216 455.721C72.4814 455.577 73.2094 455.184 72.4237 455.621C72.2595 455.715 72.0908 455.819 71.931 455.921C71.2652 456.354 71.5071 456.025 72.0619 455.901C71.7801 455.963 70.4795 456.312 71.0055 456.205C71.5315 456.099 70.0888 456.258 69.8092 456.261C69.5872 456.261 67.6962 456.132 68.7349 456.261C68.064 456.165 67.4003 456.025 66.7485 455.839C66.4223 455.75 66.1049 455.641 65.7808 455.539C65.7409 455.539 64.9685 455.231 65.4856 455.446C66.0472 455.668 65.1216 455.257 64.9996 455.195C64.7776 455.082 64.5734 454.973 64.3648 454.84C64.0918 454.678 63.8277 454.503 63.568 454.318C63.7589 454.454 64.2782 454.971 63.5902 454.298C63.133 453.855 62.6669 453.411 62.2341 452.945C61.8013 452.479 61.4462 452.044 61.0667 451.58C60.5073 450.898 61.4573 452.115 60.9202 451.393C60.7581 451.171 60.5983 450.949 60.4408 450.741C59.5996 449.573 58.8072 448.37 58.0371 447.156C56.5898 444.986 55.2906 442.721 54.1485 440.376C54.1197 440.314 53.7801 439.446 54.0198 440.074C53.9177 439.808 53.8201 439.539 53.7268 439.27C53.5049 438.647 53.3096 438.016 53.1453 437.375C53.0499 437.013 52.9833 436.647 52.8923 436.285C52.8612 436.161 52.7236 435.242 52.8235 436.063C52.7347 435.344 52.7725 434.625 52.7369 433.904C52.7369 433.755 52.8213 432.843 52.6992 433.737C52.7377 433.477 52.7896 433.218 52.8546 432.963C52.9439 432.704 53.018 432.44 53.0765 432.173C53.1276 431.66 52.9545 432.494 52.8901 432.588C53.0943 432.292 53.971 431.092 53.0566 432.11C53.3961 431.733 53.7468 431.382 54.1041 431.025C54.3727 430.757 54.8077 430.674 53.9332 431.145C54.1552 431.023 54.3771 430.852 54.5991 430.719C54.821 430.586 55.0674 430.472 55.2916 430.337C56.1083 429.838 54.7234 430.43 55.2916 430.31C55.8131 430.202 56.3214 429.962 56.8452 429.838C57.1093 429.775 57.3868 429.744 57.6487 429.673C58.3145 429.491 56.4146 429.702 57.662 429.696C58.2146 429.696 58.7717 429.696 59.3133 429.696C59.675 429.696 60.1722 429.942 59.1268 429.656C59.3909 429.727 59.6684 429.76 59.9347 429.827C60.2011 429.893 60.463 429.991 60.7293 430.048C61.6371 430.27 60.3808 429.722 60.8003 430.048C61.0755 430.27 62.6158 431.211 61.6703 430.466C62.69 431.425 64.037 431.959 65.4368 431.959C66.8366 431.959 68.1836 431.425 69.2033 430.466C70.193 429.462 70.7479 428.109 70.7479 426.699C70.7479 425.29 70.193 423.937 69.2033 422.933C66.4652 420.731 63.1308 419.398 59.6292 419.107C56.1275 418.815 52.6187 419.578 49.5542 421.297C42.625 425.143 40.9937 432.918 42.8736 440.183C43.9392 443.861 45.5443 447.362 47.6366 450.57C49.5304 453.77 51.6689 456.819 54.0331 459.69C56.4453 462.517 59.5824 464.634 63.1074 465.812C66.6324 466.99 70.4119 467.186 74.0395 466.377C81.5103 464.63 87.8269 455.095 85.6962 447.562C85.3206 446.2 84.4194 445.043 83.1907 444.346C81.9619 443.648 80.5064 443.467 79.1443 443.843C77.7822 444.218 76.625 445.119 75.9274 446.348C75.2298 447.577 75.0489 449.032 75.4245 450.394L75.4222 450.43Z" fill="#211715"/>
<path d="M88.3751 405.055C81.8676 397.902 70.282 399.573 63.6901 405.603C61.8616 407.187 60.366 409.118 59.29 411.284C58.214 413.451 57.5792 415.809 57.4223 418.223C57.3957 422.835 60.3409 427.185 62.6003 431.032C66.3047 437.331 70.7303 443.385 74.9473 449.363C76.7087 452.136 78.8098 454.679 81.2018 456.931C84.7821 459.725 89.2543 461.124 93.7885 460.871C105.232 460.38 111.529 449.183 108.659 438.676C106.85 432.073 96.5695 434.876 98.3872 441.51C98.812 442.645 98.9455 443.868 98.7757 445.067C98.6059 446.267 98.1381 447.405 97.4151 448.377C97.7613 447.92 96.7759 448.996 96.6227 449.145C96.1921 449.565 96.6227 449.212 96.7137 449.132C96.5228 449.28 96.3142 449.416 96.11 449.545C95.2163 450.087 94.1729 450.33 93.1315 450.239C91.9275 450.242 90.7324 450.034 89.6003 449.624C89.1872 449.396 88.7577 449.199 88.3152 449.034C88.2331 449.012 87.6316 448.612 88.3374 449.087C89.0432 449.562 88.1443 448.892 88.0467 448.792C86.5934 447.327 85.2907 445.721 84.1581 443.996C81.2107 439.819 78.3253 435.58 75.4289 431.371C73.349 428.332 71.441 425.178 69.7138 421.925C69.0812 420.862 68.5364 419.748 68.0847 418.596C68.2201 419.04 68.0847 418.183 68.0847 418.121C68.1969 417.501 68.4035 416.903 68.6972 416.346C69.2906 415.138 70.1273 414.065 71.1547 413.196C72.1821 412.327 73.3781 411.679 74.6676 411.294C75.7107 410.875 76.8546 410.774 77.9548 411.005C79.055 411.236 80.0621 411.787 80.8489 412.59C85.4721 417.673 92.9894 410.122 88.3818 405.057L88.3751 405.055Z" fill="#211715"/>
<path d="M116.205 429.578C116.401 430.768 116.294 431.988 115.894 433.126C115.494 434.263 114.814 435.282 113.917 436.088C113.321 436.656 112.576 437.045 111.768 437.207C110.96 437.369 110.123 437.299 109.354 437.004C107.032 435.532 105.168 433.44 103.971 430.965C101.663 427.174 99.2884 423.432 96.8936 419.697C92.9828 413.6 88.5638 407.323 86.9059 400.165C86.9059 400.121 86.6484 399.113 86.8282 399.766C87.008 400.418 87.0923 399.151 86.8482 399.67C86.5819 400.236 87.2632 398.312 86.988 399.005C87.4066 397.975 88.1201 397.091 89.0388 396.466C90.1686 395.629 91.507 395.12 92.9072 394.994C94.3073 394.869 95.715 395.131 96.9757 395.753C99.861 397.109 101.901 400.316 103.778 402.78C105.976 405.665 108.113 408.613 110.031 411.687C113.653 417.491 122.875 412.148 119.23 406.309C116.827 402.554 114.234 398.925 111.462 395.433C108.679 391.847 105.896 388.196 101.672 386.231C92.2526 381.848 79.2665 385.95 76.6031 396.776C75.4822 401.331 77.2867 405.965 79.1022 410.093C81.2967 414.772 83.8446 419.276 86.7239 423.568C89.6292 428.126 92.4546 432.736 95.3555 437.297C97.7866 441.685 101.581 445.162 106.164 447.201C108.687 447.984 111.368 448.108 113.953 447.56C116.537 447.012 118.937 445.81 120.924 444.069C122.98 442.292 124.59 440.056 125.622 437.541C126.653 435.027 127.079 432.305 126.863 429.596C126.517 422.775 115.861 422.733 116.21 429.596L116.205 429.578Z" fill="#211715"/>
<path d="M109.318 553.829C106.433 546.622 104.193 539.134 101.08 532.025L97.8968 539.851C117.02 532.819 136.096 525.61 154.846 517.627C160.322 515.297 165.78 512.902 171.08 510.194L163.793 508.283C166.849 514.497 169.482 520.914 172.449 527.171C173.171 528.381 174.339 529.259 175.701 529.617C177.064 529.974 178.513 529.782 179.736 529.082C180.933 528.348 181.8 527.18 182.157 525.822C182.513 524.463 182.33 523.02 181.647 521.793C178.681 515.536 176.049 509.12 172.991 502.905C172.261 501.704 171.093 500.833 169.734 500.476C168.374 500.119 166.929 500.305 165.704 500.994C146.031 511.044 124.881 518.49 104.189 526.205C101.151 527.337 98.1098 528.462 95.0647 529.579C94.2909 529.815 93.5794 530.221 92.9821 530.766C92.3848 531.312 91.9167 531.984 91.6119 532.733C91.307 533.483 91.1731 534.291 91.2198 535.098C91.2665 535.906 91.4927 536.693 91.882 537.403C91.3449 536.177 91.6467 536.832 91.9286 537.58C92.1639 538.208 92.4013 538.836 92.6344 539.467C93.3002 541.282 93.9661 543.104 94.6319 544.924C96.0635 548.851 97.4973 552.779 99.0509 556.661C99.4626 558 100.37 559.13 101.588 559.822C102.806 560.513 104.242 560.713 105.603 560.381C106.96 559.997 108.111 559.094 108.807 557.868C109.504 556.642 109.689 555.191 109.323 553.829H109.318Z" fill="#211715"/>
<path d="M234.335 624.075C219.007 590.148 205.002 555.677 190.953 521.209C190.719 520.434 190.314 519.721 189.769 519.122C189.223 518.524 188.551 518.055 187.801 517.75C187.051 517.445 186.242 517.311 185.434 517.359C184.626 517.407 183.838 517.635 183.129 518.026C168.658 525.637 153.889 532.656 138.822 539.082C124.7 545.446 110.021 550.492 94.9716 554.157C93.6162 554.543 92.4666 555.446 91.7704 556.672C91.0743 557.897 90.8872 559.347 91.2496 560.709C99.2197 586.233 106.895 611.872 115.733 637.123C120.109 649.635 124.768 662.053 129.88 674.286C134.158 685.042 139.18 695.487 144.91 705.545C155.641 723.654 170.583 739.517 190.935 746.41C202.153 750.165 214.058 751.413 225.81 750.066C237.562 748.719 248.876 744.811 258.953 738.616C269.369 732.133 278.041 723.255 286.089 714.086C294.079 704.973 301.436 695.34 308.949 685.839C309.908 684.819 310.442 683.472 310.442 682.072C310.442 680.673 309.908 679.325 308.949 678.306C307.946 677.315 306.593 676.76 305.183 676.76C303.773 676.76 302.42 677.315 301.416 678.306C288.643 694.459 276.276 711.94 260.065 724.888C251.707 731.471 241.961 736.066 231.565 738.326C221.168 740.585 210.394 740.45 200.057 737.93C180.839 733.351 166.563 719.981 156.229 703.634C143.9 684.13 135.839 661.828 128.093 640.211C118.363 613.053 110.115 585.405 101.517 557.868L97.797 564.42C113.495 560.966 128.612 554.876 143.37 548.617C158.697 542.119 173.739 534.984 188.496 527.215L180.672 524.032C195.07 559.359 209.428 594.687 225.135 629.444C225.855 630.657 227.023 631.537 228.388 631.895C229.752 632.252 231.202 632.058 232.424 631.355C233.619 630.619 234.484 629.452 234.84 628.095C235.196 626.738 235.015 625.296 234.335 624.068V624.075Z" fill="#211715"/>
<path d="M461.598 199.853C461.598 200.139 461.645 200.423 461.634 200.71L472.096 199.294C471.796 197.018 471.025 194.829 469.834 192.867C468.643 190.904 467.056 189.211 465.176 187.894C461.39 185.499 457.22 183.772 452.849 182.789C443.496 180.51 433.847 179.696 424.244 180.377C414.532 180.609 404.924 182.439 395.806 185.795C391.407 187.371 387.762 190.545 385.597 194.686C383.846 198.878 383.072 203.414 383.33 207.95C383.232 216.38 385.491 224.67 389.854 231.884C394.383 238.685 402.027 242.351 409.591 244.791C416.78 246.974 424.321 247.755 431.804 247.092C439.897 246.814 447.876 245.095 455.366 242.014C471.925 234.661 474.453 214.295 472.056 198.426C471.673 197.069 470.77 195.917 469.544 195.221C468.317 194.525 466.866 194.34 465.504 194.706C464.161 195.111 463.026 196.018 462.333 197.237C461.641 198.457 461.444 199.897 461.785 201.258C463.234 210.859 462.546 224.227 454.016 230.597C449.633 233.866 443.174 235.287 437.841 235.986C432.067 236.858 426.207 237.007 420.396 236.43C414.022 235.667 407.918 233.418 402.573 229.862C397.706 226.604 395.795 220.583 394.712 215.083C394.143 212.104 393.905 209.072 394.002 206.041C394.084 203.002 394.224 199.416 396.765 197.334C399.228 195.672 402.015 194.549 404.942 194.038C409.1 192.914 413.335 192.093 417.613 191.581C426.458 190.415 435.423 190.496 444.246 191.821C448.453 192.438 452.568 193.573 456.496 195.201C457.897 195.713 459.181 196.503 460.269 197.525C461.188 198.887 461.724 200.472 461.822 202.112C462.932 208.258 472.032 206.436 472.287 200.696C472.287 200.41 472.241 200.126 472.252 199.84C472.505 192.997 461.851 193.006 461.598 199.853Z" fill="#211715"/>
<path d="M488.103 199.853C488.103 200.139 488.057 200.423 488.068 200.71C488.084 201.99 488.558 203.223 489.406 204.183C490.254 205.143 491.418 205.767 492.687 205.941C493.958 206.126 495.254 205.84 496.33 205.138C497.407 204.435 498.19 203.364 498.533 202.126C498.575 200.725 499.02 199.367 499.816 198.213C500.612 197.06 501.724 196.161 503.018 195.625C506.266 194.129 509.688 193.043 513.203 192.391C520.915 190.9 528.792 190.452 536.623 191.059C544.648 191.358 552.585 192.843 560.174 195.467C561.507 195.836 562.725 196.54 563.71 197.511C564.695 198.482 565.416 199.688 565.805 201.016C566.48 204.21 566.63 207.493 566.249 210.735C565.825 216.37 564.331 223.206 560.503 227.603C556.508 232.182 550.098 234.088 544.565 235.504C533.014 237.58 521.122 236.61 510.061 232.688C498.297 227.73 496.912 212.269 498.575 201.262C498.906 199.902 498.705 198.466 498.014 197.249C497.322 196.031 496.193 195.123 494.855 194.71C493.493 194.346 492.043 194.531 490.817 195.227C489.591 195.923 488.688 197.074 488.303 198.43C486.108 212.955 487.779 230.342 500.692 239.593C506.796 243.963 515.188 245.821 522.53 246.644C529.88 247.673 537.344 247.588 544.669 246.391C552.859 245.018 560.541 241.507 566.939 236.212C572.843 230.932 575.418 222.183 576.465 214.604C577.626 206.21 577.821 195.56 570.821 189.541C567.127 186.689 562.832 184.715 558.261 183.771C553.334 182.493 548.324 181.565 543.266 180.994C532.48 179.596 521.539 179.94 510.862 182.013C505.866 182.915 501.044 184.599 496.573 187.004C494.334 188.273 492.419 190.043 490.978 192.175C489.536 194.307 488.607 196.743 488.263 199.294L498.726 200.71C498.726 200.423 498.772 200.139 498.761 199.853C498.508 193.019 487.852 192.986 488.103 199.853Z" fill="#211715"/>
<path d="M470.971 208.396C471.937 208.156 472.907 207.941 473.885 207.763C474.305 207.688 474.724 207.623 475.144 207.554C476.562 207.332 473.988 207.659 475.415 207.526C477.246 207.341 479.085 207.255 480.926 207.27C481.773 207.286 482.623 207.326 483.469 207.39C483.963 207.427 484.457 207.474 484.95 207.53C485.16 207.552 485.37 207.577 485.582 207.603C484.869 207.506 484.818 207.501 485.429 207.59C487.25 207.898 489.055 208.298 490.836 208.791C492.198 209.166 493.654 208.985 494.883 208.287C496.112 207.59 497.013 206.432 497.389 205.07C497.764 203.707 497.583 202.251 496.885 201.023C496.187 199.794 495.03 198.892 493.668 198.517C485.339 196.163 476.541 196.027 468.144 198.122C466.789 198.509 465.64 199.412 464.945 200.637C464.249 201.863 464.062 203.312 464.424 204.674C464.823 206.02 465.729 207.16 466.95 207.854C468.172 208.548 469.614 208.742 470.976 208.396H470.971Z" fill="#211715"/>
<path d="M389.978 195.729C386.323 194.896 382.577 194.523 378.83 194.619C377.421 194.642 376.073 195.197 375.056 196.173C374.309 196.918 373.799 197.868 373.593 198.903C373.386 199.938 373.492 201.011 373.896 201.986C374.3 202.961 374.985 203.794 375.863 204.379C376.742 204.964 377.774 205.275 378.83 205.273C380.966 205.207 383.105 205.315 385.224 205.597L383.808 205.406C384.928 205.554 386.038 205.754 387.137 206.008C388.524 206.357 389.991 206.165 391.241 205.47C391.845 205.117 392.374 204.649 392.797 204.091C393.22 203.534 393.529 202.899 393.707 202.222C393.884 201.545 393.926 200.84 393.831 200.147C393.736 199.453 393.505 198.786 393.152 198.182C392.447 196.986 391.306 196.111 389.969 195.74L389.978 195.729Z" fill="#211715"/>
<path d="M573.34 206.003C574.445 205.755 575.555 205.554 576.669 205.402L575.253 205.593C577.372 205.31 579.511 205.202 581.648 205.268C582.703 205.271 583.736 204.96 584.614 204.375C585.492 203.79 586.177 202.957 586.581 201.982C586.986 201.007 587.091 199.934 586.884 198.899C586.678 197.864 586.168 196.914 585.421 196.169C584.398 195.202 583.054 194.649 581.648 194.615C577.9 194.519 574.155 194.891 570.499 195.725C569.488 196.003 568.582 196.573 567.894 197.364C567.205 198.155 566.766 199.131 566.63 200.171C566.494 201.21 566.668 202.267 567.13 203.208C567.592 204.149 568.322 204.933 569.227 205.462C570.482 206.142 571.944 206.333 573.331 205.999L573.34 206.003Z" fill="#211715"/>
<path d="M453.985 287.742C460.677 294.301 471.297 296.2 480.275 296.198C489.253 296.196 499.873 294.318 506.576 287.764C511.486 282.961 503.95 275.431 499.043 280.229C498.821 280.451 497.711 281.388 498.377 280.864C498.997 280.373 497.558 281.408 497.228 281.61C496.644 281.969 496.042 282.3 495.43 282.606C495.019 282.813 494.602 283.01 494.178 283.194C494.902 282.879 494.162 283.194 493.823 283.314C489.475 284.841 484.892 285.592 480.284 285.534C475.757 285.608 471.253 284.88 466.981 283.381C466.921 283.358 465.378 282.715 466.381 283.159C466.029 283.011 465.68 282.847 465.334 282.668C464.652 282.333 463.984 281.971 463.336 281.572C462.839 281.266 462.373 280.924 461.893 280.595C463.254 281.523 461.856 280.515 461.523 280.189C456.622 275.386 449.094 282.915 453.99 287.722L453.985 287.742Z" fill="#211715"/>
<path d="M477.563 238.217C478.618 242.035 479.463 245.907 480.093 249.818L479.902 248.402C479.978 248.933 479.993 249.47 479.947 250.004L480.135 248.588C480.1 248.833 480.042 249.074 479.96 249.308L480.497 248.036C480.426 248.197 480.341 248.352 480.242 248.497L481.074 247.421C480.963 247.559 480.836 247.684 480.697 247.794L481.773 246.962C481.478 247.144 481.171 247.306 480.854 247.448L482.128 246.91C481.63 247.12 481.109 247.269 480.575 247.354L481.991 247.163C481.508 247.22 481.02 247.22 480.537 247.163L481.953 247.352C481.405 247.277 480.865 247.144 480.317 247.068C478.929 246.745 477.471 246.936 476.213 247.605C475.609 247.958 475.081 248.427 474.657 248.984C474.234 249.541 473.925 250.177 473.748 250.854C473.57 251.531 473.528 252.236 473.623 252.929C473.718 253.622 473.949 254.29 474.303 254.894C474.641 255.495 475.097 256.021 475.644 256.44C476.191 256.86 476.817 257.164 477.485 257.335C478.679 257.495 479.836 257.801 481.047 257.855C482.847 257.868 484.624 257.45 486.228 256.634C487.233 256.185 488.124 255.515 488.836 254.675C489.547 253.835 490.061 252.846 490.338 251.78C490.701 250.031 490.682 248.224 490.283 246.482C489.652 242.745 488.791 239.04 487.841 235.385C487.466 234.022 486.564 232.865 485.335 232.167C484.107 231.469 482.651 231.288 481.288 231.664C479.926 232.039 478.768 232.941 478.071 234.17C477.373 235.399 477.192 236.854 477.567 238.217H477.563Z" fill="#211715"/>
<path d="M418.299 206.057C416.476 211.963 417.655 225.555 428.848 226.718C443.641 226.638 444.437 210.205 439.461 202.477C435.386 196.149 423.399 193.512 418.299 206.057Z" fill="#211715"/>
<path d="M540.23 206.118C542.046 212.027 540.854 225.619 529.659 226.76C514.866 226.664 514.087 210.231 519.07 202.507C523.151 196.202 535.141 193.567 540.23 206.118Z" fill="#211715"/>
</g>
<defs>
<clipPath id="clip0_280_56">
<rect width="800" height="800" fill="white"/>
</clipPath>
</defs>
</svg>
