<svg width="800" height="800" viewBox="0 0 800 800" fill="none" xmlns="http://www.w3.org/2000/svg">
<path d="M749.375 727.578C749.375 730.859 746.641 733.594 743.359 733.594H56.25C52.9687 733.594 50.2344 730.859 50.2344 727.578V706.016C50.2344 702.734 52.9687 700 56.25 700H743.359C746.641 700 749.375 702.734 749.375 706.016V727.578Z" fill="#333E48"/>
<path d="M743.359 700H422.188V733.594H743.359C746.641 733.594 749.375 730.859 749.375 727.578V706.016C749.375 702.656 746.719 700 743.359 700Z" fill="#00AD68"/>
<path d="M104.375 143.438H441.875V699.922H104.375V143.438Z" fill="#D6EEF0"/>
<path d="M104.375 143.438H441.875V220.469H104.375V143.438Z" fill="black"/>
<path d="M146.562 479.531H399.688V548.125H146.562V479.531Z" fill="white"/>
<path d="M146.562 479.531H399.688V504.766H146.562V479.531Z" fill="black"/>
<path d="M261.953 479.531H284.297V548.125H261.953V479.531Z" fill="#333E48"/>
<path d="M157.734 536.953H388.438V490.703H157.734V536.953ZM399.687 559.375H146.563C140.391 559.375 135.391 554.375 135.391 548.203V479.609C135.391 473.438 140.391 468.438 146.563 468.438H399.687C405.859 468.438 410.859 473.438 410.859 479.609V548.203C410.859 554.297 405.859 559.375 399.687 559.375Z" fill="#0071CE"/>
<path d="M146.562 366.406H399.688V435H146.562V366.406Z" fill="white"/>
<path d="M146.562 366.406H399.688V391.641H146.562V366.406Z" fill="black"/>
<path d="M261.953 366.406H284.297V435H261.953V366.406Z" fill="#333E48"/>
<path d="M157.734 423.828H388.438V377.578H157.734V423.828ZM399.688 446.25H146.563C140.391 446.25 135.391 441.25 135.391 435.078V366.406C135.391 360.234 140.391 355.234 146.563 355.234H399.688C405.859 355.234 410.859 360.234 410.859 366.406V435C410.859 441.25 405.859 446.25 399.688 446.25Z" fill="#0071CE"/>
<path d="M146.562 253.281H399.688V321.875H146.562V253.281Z" fill="white"/>
<path d="M146.562 253.281H399.688V278.516H146.562V253.281Z" fill="black"/>
<path d="M261.953 253.281H284.297V321.875H261.953V253.281Z" fill="#333E48"/>
<path d="M157.734 310.781H388.438V264.531H157.734V310.781ZM399.687 333.125H146.563C140.391 333.125 135.391 328.125 135.391 321.953V253.359C135.391 247.187 140.391 242.188 146.563 242.188H399.687C405.859 242.188 410.859 247.187 410.859 253.359V321.953C410.859 328.125 405.859 333.125 399.687 333.125Z" fill="#0071CE"/>
<path d="M207.891 603.75H338.359V700H207.891V603.75Z" fill="white"/>
<path d="M261.953 603.75H284.297V700H261.953V603.75Z" fill="#333E48"/>
<path d="M349.531 700H327.187V614.922H219.062V700H196.719V603.75C196.719 597.578 201.719 592.578 207.891 592.578H338.359C344.531 592.578 349.531 597.578 349.531 603.75V700Z" fill="#0071CE"/>
<path d="M452.422 116.016H347.187V81.5625C347.187 73.3594 340.469 66.6406 332.266 66.6406H213.984C205.781 66.6406 199.063 73.3594 199.063 81.5625V116.016H93.8281C85.625 116.016 78.9062 122.734 78.9062 130.937V189.141C78.9062 197.344 85.625 204.062 93.8281 204.062H452.422C460.625 204.062 467.344 197.344 467.344 189.141V130.937C467.344 122.734 460.625 116.016 452.422 116.016Z" fill="#F57C00"/>
<path d="M309.219 118.203H290.391V99.375C290.391 95.2344 287.031 91.9531 282.969 91.9531H263.281C259.141 91.9531 255.859 95.3125 255.859 99.375V118.203H237.031C232.891 118.203 229.609 121.563 229.609 125.625V145.234C229.609 149.375 232.969 152.656 237.031 152.656H255.859V171.484C255.859 175.625 259.219 178.906 263.281 178.906H282.891C287.031 178.906 290.313 175.547 290.313 171.484V152.656H309.141C313.281 152.656 316.563 149.297 316.563 145.234V125.625C316.641 121.563 313.359 118.203 309.219 118.203Z" fill="white"/>
<path d="M441.875 446.328H695.156V700H441.875V446.328Z" fill="#D6EEF0"/>
<path d="M484.141 517.5H652.891V586.094H484.141V517.5Z" fill="white"/>
<path d="M484.141 517.5H652.891V542.734H484.141V517.5Z" fill="black"/>
<path d="M557.344 517.5H579.687V586.094H557.344V517.5Z" fill="#333E48"/>
<path d="M495.312 574.922H641.641V528.672H495.312V574.922ZM652.891 597.344H484.141C477.969 597.344 472.969 592.344 472.969 586.172V517.578C472.969 511.406 477.969 506.406 484.141 506.406H652.891C659.062 506.406 664.062 511.406 664.062 517.578V586.172C664.062 592.266 659.062 597.344 652.891 597.344Z" fill="#0071CE"/>
<path d="M441.875 402.656H708.828C717.031 402.656 723.75 409.375 723.75 417.578V446.172C723.75 454.375 717.031 461.094 708.828 461.094H441.875V402.656Z" fill="#F57C00"/>
<path d="M470.078 461.094V402.656H441.875V700H470.078V489.531H695.156V461.094H470.078Z" fill="black"/>
<path d="M640.234 700C640.234 673.594 618.828 652.266 592.5 652.266C566.094 652.266 544.766 673.672 544.766 700H640.234Z" fill="#218649"/>
</svg>
