<svg width="800" height="800" viewBox="0 0 800 800" fill="none" xmlns="http://www.w3.org/2000/svg">
<g clip-path="url(#clip0_320_7)">
<path d="M487.5 475L672.5 526.25H531.25L337.5 475H487.5Z" fill="#F08B24"/>
<path d="M62.5 275H337.5V750H62.5V275Z" fill="#F9F3D9"/>
<path d="M337.5 275H487.5V475H337.5V275Z" fill="#DBB471"/>
<path d="M262.5 100L13.75 275H337.5L262.5 100Z" fill="#F57C00"/>
<path d="M362.5 125H400V225H362.5V125Z" fill="#D0D0D0"/>
<path d="M400 125H425V237.5H400V125Z" fill="#94989B"/>
<path d="M262.5 100L537.5 275H337.5L262.5 100Z" fill="#F08B24"/>
<path d="M350 100H412.5V125H350V100Z" fill="#D0D0D0"/>
<path d="M412.5 100H437.5V125H412.5V100Z" fill="#94989B"/>
<path d="M160 347.5H240V427.5H160V347.5Z" fill="#D6EEF0"/>
<path d="M150 337.5V437.5H250V337.5H150ZM240 347.5V382.5H205V347.5H240ZM195 347.5V382.5H160V347.5H195ZM160 427.5V392.5H195V427.5H160ZM205 427.5V392.5H240V427.5H205Z" fill="#89664C"/>
<path d="M382.5 342.5H442.5V432.5H382.5V342.5Z" fill="#D6EEF0"/>
<path d="M377.5 337.5V437.5H447.5V337.5H377.5ZM387.5 347.5H407.5V382.5H387.5V347.5ZM387.5 427.5V392.5H407.5V427.5H387.5ZM437.5 427.5H417.5V392.5H437.5V427.5ZM437.5 382.5H417.5V347.5H437.5V382.5Z" fill="#89664C"/>
<path d="M171.25 613.75H248.75V750H171.25V613.75Z" fill="#89664C"/>
<path d="M240 593.75H260V613.75H240V593.75Z" fill="#89664C"/>
<path d="M151.25 613.75H171.25V750H151.25V613.75Z" fill="#594640"/>
<path d="M142.5 593.75H240V613.75H142.5V593.75Z" fill="#DBB471"/>
<path d="M232.5 680C236.642 680 240 676.642 240 672.5C240 668.358 236.642 665 232.5 665C228.358 665 225 668.358 225 672.5C225 676.642 228.358 680 232.5 680Z" fill="#F9F3D9"/>
<path d="M1.25 750H651.25V800H1.25V750Z" fill="#83BF4F"/>
<path d="M498.75 526.25H615V750H498.75V526.25Z" fill="#DBB471"/>
<path d="M337.5 526.25H498.75V750H337.5V526.25Z" fill="#F9F3D9"/>
<path d="M337.5 475H62.5L0 526.25H531.25L337.5 475Z" fill="#F57C00"/>
<path d="M353.75 597.5H433.75V677.5H353.75V597.5Z" fill="#D6EEF0"/>
<path d="M343.75 587.5V687.5H443.75V587.5H343.75ZM433.75 597.5V632.5H398.75V597.5H433.75ZM388.75 597.5V632.5H353.75V597.5H388.75ZM353.75 677.5V642.5H388.75V677.5H353.75ZM398.75 677.5V642.5H433.75V677.5H398.75Z" fill="#89664C"/>
<path d="M526.25 592.5H586.25V682.5H526.25V592.5Z" fill="#D6EEF0"/>
<path d="M521.25 587.5V687.5H591.25V587.5H521.25ZM531.25 597.5H551.25V632.5H531.25V597.5ZM531.25 677.5V642.5H551.25V677.5H531.25ZM581.25 677.5H561.25V642.5H581.25V677.5ZM581.25 632.5H561.25V597.5H581.25V632.5Z" fill="#89664C"/>
<path d="M648.75 750H798.75V800H648.75V750Z" fill="#699635"/>
<path d="M652.5 425H702.5V750H652.5V425Z" fill="#D3976E"/>
<path d="M702.5 425H683.75V431.25C683.75 460 673.75 460 673.75 488.75C673.75 517.5 683.75 517.5 683.75 545C683.75 573.75 673.75 573.75 673.75 602.5C673.75 631.25 683.75 631.25 683.75 658.75C683.75 687.5 673.75 687.5 673.75 715C673.75 732.5 676.25 740 678.75 748.75H701.25C702.5 750 702.5 425 702.5 425Z" fill="#89664C"/>
<path d="M665 36.25C641.25 70 612.5 8.75 575 61.25C537.5 113.75 557.5 160 568.75 193.75C591.25 262.5 545 283.75 576.25 341.25C606.25 398.75 562.5 426.25 620 457.5C677.5 488.75 648.75 421.25 707.5 461.25C766.25 501.25 773.75 433.75 767.5 408.75C755 362.5 788.75 351.25 798.75 312.5C815 243.75 760 206.25 777.5 141.25C792.5 77.5 736.25 -67.5 665 36.25Z" fill="#83BF4F"/>
<path d="M775 142.5C788.75 93.75 760 0 715 0C715 0 745 40 702.5 90C660 140 738.75 165 702.5 211.25C666.25 257.5 736.25 302.5 708.75 338.75C675 383.75 621.25 377.5 652.5 463.75V465C665 457.5 666.25 436.25 705 462.5C763.75 502.5 771.25 435 765 410C752.5 363.75 786.25 352.5 796.25 313.75C813.75 245 758.75 207.5 775 142.5Z" fill="#699635"/>
<path d="M722.5 140C713.75 140 727.5 132.5 727.5 122.5C727.5 112.5 713.75 105 722.5 105C731.25 105 740 112.5 740 122.5C740 132.5 732.5 140 722.5 140Z" fill="#83BF4F"/>
<path d="M745 291.25C731.25 291.25 752.5 280 752.5 266.25C752.5 252.5 731.25 241.25 745 241.25C758.75 241.25 770 252.5 770 266.25C770 280 758.75 291.25 745 291.25Z" fill="#83BF4F"/>
<path d="M722.5 418.75C712.5 418.75 722.5 410 722.5 400C722.5 390 712.5 381.25 722.5 381.25C732.5 381.25 741.25 390 741.25 400C741.25 410 732.5 418.75 722.5 418.75Z" fill="#83BF4F"/>
<path d="M616.25 151.25C626.25 151.25 613.75 160 613.75 170C613.75 180 627.5 188.75 616.25 188.75C605 188.75 597.5 180 597.5 170C597.5 160 606.25 151.25 616.25 151.25Z" fill="#83BF4F"/>
<path d="M657.5 80C671.25 80 651.25 91.25 651.25 105C651.25 118.75 672.5 130 657.5 130C643.75 130 632.5 118.75 632.5 105C632.5 91.25 642.5 80 657.5 80Z" fill="#83BF4F"/>
<path d="M646.25 270C667.5 270 637.5 286.25 637.5 307.5C637.5 328.75 666.25 345 646.25 345C625 345 608.75 328.75 608.75 307.5C608.75 286.25 625 270 646.25 270Z" fill="#699635"/>
<path d="M657.5 201.25C667.5 201.25 657.5 210 657.5 220C657.5 230 667.5 238.75 657.5 238.75C647.5 238.75 638.75 230 638.75 220C638.75 210 647.5 201.25 657.5 201.25Z" fill="#699635"/>
<path d="M726.25 712.5H731.25V750H726.25V712.5Z" fill="#83BF4F"/>
<path d="M715 673.75V702.5C715 707.5 718.75 712.5 725 712.5H735V692.5C733.75 678.75 715 673.75 715 673.75Z" fill="#F08B24"/>
<path d="M743.75 673.75V702.5C743.75 707.5 740 712.5 733.75 712.5H723.75V692.5C723.75 678.75 743.75 673.75 743.75 673.75Z" fill="#F57C00"/>
<path d="M781.25 683.75H786.25V750H781.25V683.75Z" fill="#83BF4F"/>
<path d="M770 643.75V672.5C770 677.5 773.75 682.5 780 682.5H790V662.5C788.75 650 770 643.75 770 643.75Z" fill="#F08B24"/>
<path d="M798.75 643.75V672.5C798.75 677.5 795 682.5 788.75 682.5H778.75V662.5C778.75 650 798.75 643.75 798.75 643.75Z" fill="#F57C00"/>
<path d="M733.75 627.5V656.25C733.75 661.25 737.5 666.25 743.75 666.25H753.75V646.25C753.75 633.75 733.75 627.5 733.75 627.5Z" fill="#F57C00"/>
<path d="M763.75 627.5V656.25C763.75 661.25 760 666.25 753.75 666.25H743.75V646.25C743.75 633.75 763.75 627.5 763.75 627.5Z" fill="#F57C00"/>
<path d="M746.25 667.5H751.25V750H746.25V667.5Z" fill="#83BF4F"/>
<path d="M693.75 642.5V671.25C693.75 676.25 698.75 681.25 703.75 681.25H712.5V662.5C712.5 647.5 693.75 642.5 693.75 642.5Z" fill="#F57C00"/>
<path d="M722.5 642.5V671.25C722.5 676.25 718.75 681.25 712.5 681.25H702.5V662.5C702.5 647.5 722.5 642.5 722.5 642.5Z" fill="#F57C00"/>
<path d="M705 681.25H710V750H705V681.25Z" fill="#83BF4F"/>
<path d="M612.5 712.5H617.5V750H612.5V712.5Z" fill="#83BF4F"/>
<path d="M600 673.75V702.5C600 707.5 603.75 712.5 610 712.5H620V692.5C620 678.75 600 673.75 600 673.75Z" fill="#F08B24"/>
<path d="M630 673.75V702.5C630 707.5 626.25 712.5 620 712.5H610V692.5C610 678.75 630 673.75 630 673.75Z" fill="#F57C00"/>
<path d="M667.5 683.75H672.5V750H667.5V683.75Z" fill="#83BF4F"/>
<path d="M655 643.75V672.5C655 677.5 658.75 682.5 665 682.5H675V662.5C675 650 655 643.75 655 643.75Z" fill="#F08B24"/>
<path d="M685 643.75V672.5C685 677.5 681.25 682.5 675 682.5H665V662.5C665 650 685 643.75 685 643.75Z" fill="#F57C00"/>
<path d="M620 627.5V656.25C620 661.25 623.75 666.25 630 666.25H640V646.25C640 633.75 620 627.5 620 627.5Z" fill="#F57C00"/>
<path d="M648.75 627.5V656.25C648.75 661.25 645 666.25 638.75 666.25H628.75V646.25C630 633.75 648.75 627.5 648.75 627.5Z" fill="#F57C00"/>
<path d="M632.5 667.5H637.5V750H632.5V667.5Z" fill="#83BF4F"/>
<path d="M578.75 642.5V671.25C578.75 676.25 582.5 681.25 588.75 681.25H598.75V662.5C598.75 647.5 578.75 642.5 578.75 642.5Z" fill="#F08B24"/>
<path d="M608.75 642.5V671.25C608.75 676.25 605 681.25 598.75 681.25H588.75V662.5C588.75 647.5 608.75 642.5 608.75 642.5Z" fill="#F57C00"/>
<path d="M591.25 681.25H596.25V750H591.25V681.25Z" fill="#83BF4F"/>
</g>
<defs>
<clipPath id="clip0_320_7">
<rect width="800" height="800" fill="white"/>
</clipPath>
</defs>
</svg>
