<svg width="800" height="800" viewBox="0 0 800 800" fill="none" xmlns="http://www.w3.org/2000/svg">
<g clip-path="url(#clip0_280_32)">
<path d="M754.204 45.8154C754.204 45.7982 754.187 45.7982 754.187 45.7826C709.828 1.45762 637.945 1.47325 593.603 45.8154C549.344 90.0748 549.261 161.773 593.336 206.15C593.418 206.233 593.503 206.334 593.603 206.417C637.945 250.776 709.862 250.776 754.204 206.417C798.564 162.073 798.564 90.1576 754.204 45.8154Z" fill="#FF675C"/>
<path d="M754.187 45.7814L593.336 206.15C549.261 161.774 549.344 90.0751 593.603 45.8157C637.945 1.47354 709.828 1.45635 754.187 45.7814Z" fill="#0071CE"/>
<path d="M754.205 45.8155C754.205 45.7983 754.188 45.7983 754.188 45.7827L593.336 206.15C593.419 206.233 593.503 206.334 593.603 206.417C601.534 214.35 610.356 220.839 619.736 225.934L773.722 71.9483C768.627 62.5687 762.138 53.7468 754.205 45.8155Z" fill="#DB3D5A"/>
<path d="M433.536 593.624C389.194 549.264 317.277 549.264 272.935 593.624C272.917 593.624 272.917 593.641 272.902 593.641C228.577 638 228.592 709.883 272.935 754.225C317.194 798.484 388.892 798.567 433.269 754.492C433.352 754.409 433.453 754.325 433.536 754.225C477.896 709.883 477.896 637.966 433.536 593.624Z" fill="#FF675C"/>
<path d="M433.536 593.624C477.895 637.966 477.895 709.883 433.536 754.225C433.453 754.325 433.351 754.409 433.269 754.492L272.901 593.641C272.919 593.641 272.919 593.624 272.934 593.624C317.278 549.264 389.194 549.264 433.536 593.624Z" fill="#0071CE"/>
<path d="M433.269 754.492L272.902 593.641C265.791 600.758 259.836 608.589 255.008 616.894L410.261 772.147C418.473 767.373 426.217 761.495 433.269 754.492Z" fill="#DB3D5A"/>
<path d="M206.681 366.75C206.581 366.667 206.497 366.566 206.414 366.483C162.055 322.124 90.1391 322.124 45.7969 366.483C1.4375 410.825 1.4375 482.742 45.7969 527.084C45.7969 527.102 45.8141 527.102 45.8141 527.117C90.1734 571.442 162.056 571.427 206.416 527.084C250.672 482.825 250.756 411.127 206.681 366.75Z" fill="#FF675C"/>
<path d="M206.681 366.75L45.8125 527.117C53.3328 534.633 61.6609 540.842 70.4953 545.808L225.123 391.18C220.213 382.444 214.084 374.206 206.681 366.75Z" fill="#DB3D5A"/>
<path d="M206.414 366.483C206.497 366.566 206.581 366.667 206.681 366.75L45.8126 527.117C45.8126 527.1 45.7954 527.1 45.7954 527.084C1.43603 482.742 1.43603 410.825 45.7954 366.483C90.1376 322.125 162.055 322.125 206.414 366.483Z" fill="#0071CE"/>
<path d="M717.111 396.295L576.005 255.189L368.153 463.041L509.26 604.161C566.663 661.547 659.724 661.547 717.11 604.161C774.514 546.759 774.514 453.698 717.111 396.295Z" fill="#F57C00"/>
<path d="M535.983 577.439L394.876 436.319L576.006 255.189L547.058 226.241L339.206 434.091L509.261 604.161C566.664 661.547 659.725 661.547 717.111 604.161C721.642 599.63 725.773 594.855 729.59 589.914C671.954 634.427 588.854 630.297 535.983 577.439Z" fill="#F57C00" fill-opacity="0.76"/>
<path d="M547.056 226.241L339.206 434.091L169.136 264.036C111.75 206.633 111.75 113.572 169.136 56.1861C226.539 -1.21699 319.6 -1.21699 377.003 56.1861L547.056 226.241Z" fill="#FF675C"/>
<path d="M195.858 237.314C143.001 184.442 138.87 101.342 183.381 43.7095C178.441 47.5251 173.666 51.6579 169.133 56.1892C111.747 113.575 111.747 206.636 169.133 264.039L339.203 434.094L365.925 407.372L195.858 237.314Z" fill="#DB3D5A"/>
<path d="M345.72 321.522C362.785 321.522 376.619 307.688 376.619 290.624C376.619 273.559 362.785 259.725 345.72 259.725C328.655 259.725 314.822 273.559 314.822 290.624C314.822 307.688 328.655 321.522 345.72 321.522Z" fill="#DB3D5A"/>
<path d="M375.783 234.675C383.624 234.675 389.98 228.319 389.98 220.478C389.98 212.637 383.624 206.281 375.783 206.281C367.942 206.281 361.586 212.637 361.586 220.478C361.586 228.319 367.942 234.675 375.783 234.675Z" fill="#DB3D5A"/>
<path d="M262.212 263.066C284.811 263.066 303.131 244.746 303.131 222.147C303.131 199.548 284.811 181.228 262.212 181.228C239.613 181.228 221.293 199.548 221.293 222.147C221.293 244.746 239.613 263.066 262.212 263.066Z" fill="#DB3D5A"/>
<path d="M385.861 47.3297C323.669 -14.8625 222.47 -14.8625 160.278 47.3297C98.0998 109.509 98.0998 210.697 160.279 272.895L500.405 613.02C531.503 644.108 572.348 659.653 613.19 659.653C654.033 659.653 694.878 644.108 725.967 613.019C788.158 550.827 788.158 449.63 725.967 387.439L385.861 47.3297ZM708.251 595.305C655.84 647.717 570.545 647.717 518.117 595.305L356.92 434.091L439.694 351.319C444.586 346.427 444.586 338.495 439.694 333.605C434.801 328.713 426.872 328.713 421.978 333.605L339.204 416.377L177.992 255.181C125.579 202.752 125.579 117.458 177.992 65.0438C230.417 12.6172 315.72 12.6172 368.145 65.0438L529.34 226.241L458.781 296.8C453.889 301.692 453.889 309.623 458.781 314.514C461.228 316.959 464.434 318.183 467.639 318.183C470.844 318.183 474.05 316.961 476.497 314.514L547.053 243.958L708.25 405.153C760.678 457.578 760.678 542.88 708.251 595.305Z" fill="black"/>
<path d="M584.33 214.856C584.361 214.887 584.395 214.92 584.427 214.953C584.435 214.961 584.442 214.97 584.45 214.978C584.455 214.983 584.46 214.986 584.464 214.992C584.608 215.14 584.753 215.289 584.905 215.434C608.697 239.153 640.297 252.214 673.905 252.214C707.588 252.214 739.253 239.095 763.063 215.276C786.881 191.464 800 159.8 800 126.115C800 92.6123 787.022 61.1076 763.444 37.3404C763.424 37.3186 763.402 37.2998 763.381 37.2811C763.364 37.2623 763.352 37.242 763.333 37.2248C763.283 37.1717 763.227 37.1248 763.177 37.0732C763.13 37.0248 763.089 36.9717 763.041 36.9232C713.88 -12.2018 633.897 -12.1893 584.744 36.9608C535.814 85.892 535.624 165.606 584.263 214.784C584.288 214.806 584.308 214.833 584.33 214.856ZM602.463 54.6717C638.772 18.3607 696.07 15.5436 735.672 46.1764C720.4 61.0436 701.561 80.192 700.586 81.1842C695.736 86.1186 695.803 94.0483 700.735 98.8983C703.175 101.297 706.344 102.492 709.517 102.492C712.756 102.492 715.997 101.24 718.449 98.7498C718.688 98.5076 738.185 78.6904 753.449 63.8358C767.37 81.5436 774.949 103.24 774.949 126.117C774.949 153.106 764.436 178.48 745.345 197.562C726.266 216.648 700.894 227.161 673.905 227.161C650.953 227.161 629.191 219.534 611.453 205.523C641.881 174.58 690.26 127.187 690.795 126.661C695.738 121.82 695.82 113.889 690.98 108.947C686.144 104.006 678.21 103.92 673.266 108.761C672.728 109.287 624.499 156.537 593.844 187.701C563.375 148.117 566.25 90.8842 602.463 54.6717Z" fill="black"/>
<path d="M353.236 547.828C319.723 547.828 288.211 560.813 264.44 584.405C264.375 584.463 264.319 584.531 264.254 584.592C264.184 584.659 264.109 584.717 264.039 584.786C214.912 633.95 214.928 713.933 264.073 763.081C288.628 787.636 320.923 799.919 353.233 799.914C385.322 799.911 417.422 787.788 441.926 763.536C441.945 763.519 441.965 763.505 441.983 763.486C442.003 763.467 442.033 763.436 442.053 763.416C442.067 763.402 442.08 763.391 442.094 763.377L442.097 763.373C442.1 763.37 442.105 763.367 442.108 763.364C442.117 763.355 442.126 763.344 442.136 763.334C442.273 763.203 442.409 763.072 442.578 762.894C466.283 739.106 479.33 707.52 479.33 673.925C479.33 640.242 466.211 608.577 442.394 584.769C418.584 560.947 386.919 547.828 353.236 547.828ZM432.756 736.231L343.378 646.533C338.495 641.631 330.562 641.619 325.664 646.502C320.764 651.384 320.75 659.317 325.633 664.217L414.969 753.873C396.859 767.864 375.058 774.886 353.234 774.883C327.35 774.881 301.461 765.039 281.792 745.369C245.409 708.986 242.654 651.533 273.476 611.928C281.348 619.82 289.648 628.181 289.769 628.302C292.219 630.769 295.439 632.003 298.659 632.003C301.85 632.003 305.04 630.792 307.483 628.367C312.394 623.494 312.423 615.563 307.55 610.653C307.429 610.533 299.095 602.138 291.184 594.206C308.848 580.395 330.458 572.883 353.236 572.883C380.225 572.883 405.598 583.395 424.68 602.484C443.767 621.564 454.28 646.936 454.28 673.925C454.28 696.811 446.694 718.52 432.756 736.231Z" fill="black"/>
<path d="M215.567 357.923C215.564 357.92 215.561 357.919 215.559 357.916C215.556 357.912 215.555 357.911 215.553 357.908C215.53 357.884 215.505 357.866 215.481 357.842C215.448 357.811 215.422 357.773 215.388 357.742C215.344 357.698 215.302 357.656 215.273 357.627C191.452 333.806 159.784 320.688 126.1 320.688C92.4156 320.688 60.75 333.806 36.9406 357.625C13.1188 381.436 0 413.1 0 446.784C0 480.287 12.9781 511.792 36.5563 535.559C36.6219 535.631 36.6953 535.692 36.7609 535.762C36.825 535.83 36.8797 535.902 36.9453 535.966C36.9484 535.969 36.9516 535.972 36.9563 535.975L36.9578 535.977C61.5328 560.533 93.8063 572.808 126.088 572.808C158.383 572.808 190.684 560.517 215.27 535.939C264.266 486.947 264.398 407.087 215.567 357.923ZM197.556 518.227C161.169 554.603 103.716 557.362 64.1078 526.555L138.392 452.419C143.289 447.531 143.297 439.6 138.411 434.705C133.523 429.806 125.592 429.8 120.697 434.686L46.3859 508.848C32.5688 491.183 25.0516 469.569 25.0516 446.784C25.0516 419.795 35.5641 394.422 54.6547 375.339C73.7344 356.253 99.1063 345.741 126.097 345.741C149.002 345.741 170.728 353.334 188.423 367.264L153.283 402.297C148.383 407.18 148.37 415.113 153.255 420.011C155.702 422.466 158.914 423.694 162.127 423.694C165.325 423.694 168.525 422.477 170.97 420.039L206.064 385.055C236.648 424.644 233.811 481.973 197.556 518.227Z" fill="black"/>
<path d="M394.759 103.469C391.069 99.7768 387.337 95.8862 383.728 92.1252C372.129 80.033 360.134 67.5299 345.692 57.3549C325.242 42.9471 300.319 34.694 275.511 34.1221C260.851 33.7846 246.264 36.0565 232.186 40.8768C225.64 43.1159 222.15 50.2393 224.39 56.7846C226.631 63.3299 233.753 66.8206 240.297 64.5799C251.572 60.7206 263.211 58.9049 274.933 59.1705C294.825 59.6299 314.829 66.258 331.259 77.8362C343.726 86.6205 354.376 97.7205 365.65 109.472C369.345 113.325 373.169 117.31 377.04 121.185C379.487 123.631 382.694 124.855 385.9 124.855C389.104 124.855 392.309 123.633 394.756 121.188C399.647 116.292 399.65 108.361 394.759 103.469Z" fill="black"/>
<path d="M416.663 125.787C411.911 120.762 403.983 120.537 398.955 125.294C393.928 130.047 393.708 137.975 398.461 143C401.059 145.747 403.674 148.48 406.302 151.198C408.758 153.739 412.03 155.016 415.306 155.016C418.441 155.016 421.581 153.845 424.013 151.494C428.986 146.684 429.119 138.753 424.308 133.781C421.745 131.13 419.195 128.466 416.663 125.787Z" fill="black"/>
</g>
<defs>
<clipPath id="clip0_280_32">
<rect width="800" height="800" fill="white"/>
</clipPath>
</defs>
</svg>
