<svg width="800" height="800" viewBox="0 0 800 800" fill="none" xmlns="http://www.w3.org/2000/svg">
<path fill-rule="evenodd" clip-rule="evenodd" d="M664.04 522.12C575.52 696.064 400 800 400 800C400 800 224.48 696.064 135.96 522.12C44.528 342.448 40 126.272 40 126.272L400 0L760 126.272C760 126.272 755.472 342.448 664.04 522.12Z" fill="black"/>
<path fill-rule="evenodd" clip-rule="evenodd" d="M399.92 696C348.272 657.6 258.336 580.544 205.992 477.264C152.616 371.936 131.952 249.88 124.048 178.224L400 81.032L675.952 178.224C668.056 249.824 647.4 371.904 594.008 477.256C541.928 580.04 451.584 657.472 399.92 696Z" fill="#0071CE"/>
<path fill-rule="evenodd" clip-rule="evenodd" d="M502.312 368.328C525.864 344.456 525.848 305.776 502.312 281.904C496.629 276.117 489.828 271.547 482.323 268.472C474.818 265.397 466.766 263.881 458.656 264.016C436.6 264.392 400.224 293.984 400.224 293.984C400.224 293.984 362.824 263.976 340.224 264.008C332.302 264.023 324.462 265.613 317.159 268.685C309.857 271.758 303.238 276.251 297.688 281.904C274.152 305.776 274.136 344.456 297.688 368.328L400 472L502.312 368.328Z" fill="white"/>
<path opacity="0.08" fill-rule="evenodd" clip-rule="evenodd" d="M400 0L40 126.272C40 126.272 44.528 342.448 135.96 522.12C224.48 696.064 400 800 400 800V0Z" fill="black"/>
</svg>
